# SLSU BC Patrol RFID checkpoint device model
# Units: millimeters
# Tinkercad axes: X=width, Y=depth, Z=height
mtllib slsu-bc-patrol-device-model.mtl
v 60 -37.5 195
v 59.83 -37.5 196.294
v 59.33 -37.5 197.5
v 58.536 -37.5 198.536
v 57.5 -37.5 199.33
v 56.294 -37.5 199.83
v 55 -37.5 200
v -55 -37.5 200
v -56.294 -37.5 199.83
v -57.5 -37.5 199.33
v -58.536 -37.5 198.536
v -59.33 -37.5 197.5
v -59.83 -37.5 196.294
v -60 -37.5 195
v -60 -37.5 5
v -59.83 -37.5 3.706
v -59.33 -37.5 2.5
v -58.536 -37.5 1.464
v -57.5 -37.5 0.67
v -56.294 -37.5 0.17
v -55 -37.5 0
v 55 -37.5 0
v 56.294 -37.5 0.17
v 57.5 -37.5 0.67
v 58.536 -37.5 1.464
v 59.33 -37.5 2.5
v 59.83 -37.5 3.706
v 60 -37.5 5
v 60 37.5 195
v 59.83 37.5 196.294
v 59.33 37.5 197.5
v 58.536 37.5 198.536
v 57.5 37.5 199.33
v 56.294 37.5 199.83
v 55 37.5 200
v -55 37.5 200
v -56.294 37.5 199.83
v -57.5 37.5 199.33
v -58.536 37.5 198.536
v -59.33 37.5 197.5
v -59.83 37.5 196.294
v -60 37.5 195
v -60 37.5 5
v -59.83 37.5 3.706
v -59.33 37.5 2.5
v -58.536 37.5 1.464
v -57.5 37.5 0.67
v -56.294 37.5 0.17
v -55 37.5 0
v 55 37.5 0
v 56.294 37.5 0.17
v 57.5 37.5 0.67
v 58.536 37.5 1.464
v 59.33 37.5 2.5
v 59.83 37.5 3.706
v 60 37.5 5
v 0 -37.5 100
v 0 37.5 100
v -53 -40.2 79
v 53 -40.2 79
v 53 -40.2 157
v -53 -40.2 157
v -53 -37.5 79
v 53 -37.5 79
v 53 -37.5 157
v -53 -37.5 157
v -39 -41.6 105
v 39 -41.6 105
v 39 -41.6 135
v -39 -41.6 135
v -39 -40.15 105
v 39 -40.15 105
v 39 -40.15 135
v -39 -40.15 135
v -35 -42.2 109
v 35 -42.2 109
v 35 -42.2 131
v -35 -42.2 131
v -35 -41.45 109
v 35 -41.45 109
v 35 -41.45 131
v -35 -41.45 131
v -31.5 -42.8 112
v 31.5 -42.8 112
v 31.5 -42.8 128
v -31.5 -42.8 128
v -31.5 -42.1 112
v 31.5 -42.1 112
v 31.5 -42.1 128
v -31.5 -42.1 128
v -42 -43.25 103
v 42 -43.25 103
v 42 -43.25 137
v -42 -43.25 137
v -42 -42.75 103
v 42 -42.75 103
v 42 -42.75 137
v -42 -42.75 137
v -31.28 -43.55 105.96
v -7.28 -43.55 137.96
v -4.72 -43.55 136.04
v -28.72 -43.55 104.04
v -31.28 -43.8 105.96
v -7.28 -43.8 137.96
v -4.72 -43.8 136.04
v -28.72 -43.8 104.04
v -43 -40.9 20
v 43 -40.9 20
v 43 -40.9 68
v -43 -40.9 68
v -43 -40.05 20
v 43 -40.05 20
v 43 -40.05 68
v -43 -40.05 68
v -41 -41.35 66.6
v 41 -41.35 66.6
v 41 -41.35 65.4
v -41 -41.35 65.4
v -41 -41.8 66.6
v 41 -41.8 66.6
v 41 -41.8 65.4
v -41 -41.8 65.4
v -41 -41.35 22.6
v 41 -41.35 22.6
v 41 -41.35 21.4
v -41 -41.35 21.4
v -41 -41.8 22.6
v 41 -41.8 22.6
v 41 -41.8 21.4
v -41 -41.8 21.4
v -41.6 -41.35 22
v -41.6 -41.35 66
v -40.4 -41.35 66
v -40.4 -41.35 22
v -41.6 -41.8 22
v -41.6 -41.8 66
v -40.4 -41.8 66
v -40.4 -41.8 22
v 40.4 -41.35 22
v 40.4 -41.35 66
v 41.6 -41.35 66
v 41.6 -41.35 22
v 40.4 -41.8 22
v 40.4 -41.8 66
v 41.6 -41.8 66
v 41.6 -41.8 22
v -31.143 -41.4 53.519
v -31.823 -41.4 53.072
v -32.537 -41.4 54.158
v -31.857 -41.4 54.605
v -31.143 -42.2 53.519
v -31.823 -42.2 53.072
v -32.537 -42.2 54.158
v -31.857 -42.2 54.605
v -31.762 -41.4 53.117
v -32.386 -41.4 52.594
v -33.222 -41.4 53.59
v -32.598 -41.4 54.113
v -31.762 -42.2 53.117
v -32.386 -42.2 52.594
v -33.222 -42.2 53.59
v -32.598 -42.2 54.113
v -32.331 -41.4 52.646
v -32.89 -41.4 52.053
v -33.835 -41.4 52.946
v -33.276 -41.4 53.538
v -32.331 -42.2 52.646
v -32.89 -42.2 52.053
v -33.835 -42.2 52.946
v -33.276 -42.2 53.538
v -32.841 -41.4 52.111
v -33.327 -41.4 51.458
v -34.37 -41.4 52.235
v -33.884 -41.4 52.888
v -32.841 -42.2 52.111
v -33.327 -42.2 51.458
v -34.37 -42.2 52.235
v -33.884 -42.2 52.888
v -33.285 -41.4 51.522
v -33.693 -41.4 50.817
v -34.818 -41.4 51.467
v -34.411 -41.4 52.172
v -33.285 -42.2 51.522
v -33.693 -42.2 50.817
v -34.818 -42.2 51.467
v -34.411 -42.2 52.172
v -33.659 -41.4 50.884
v -33.981 -41.4 50.137
v -35.175 -41.4 50.652
v -34.852 -41.4 51.399
v -33.659 -42.2 50.884
v -33.981 -42.2 50.137
v -35.175 -42.2 50.652
v -34.852 -42.2 51.399
v -33.955 -41.4 50.208
v -34.189 -41.4 49.428
v -35.434 -41.4 49.801
v -35.201 -41.4 50.581
v -33.955 -42.2 50.208
v -34.189 -42.2 49.428
v -35.434 -42.2 49.801
v -35.201 -42.2 50.581
v -34.171 -41.4 49.501
v -34.313 -41.4 48.7
v -35.593 -41.4 48.926
v -35.451 -41.4 49.727
v -34.171 -42.2 49.501
v -34.313 -42.2 48.7
v -35.593 -42.2 48.926
v -35.451 -42.2 49.727
v -34.304 -41.4 48.775
v -34.351 -41.4 47.962
v -35.649 -41.4 48.038
v -35.602 -41.4 48.85
v -34.304 -42.2 48.775
v -34.351 -42.2 47.962
v -35.649 -42.2 48.038
v -35.602 -42.2 48.85
v -34.351 -41.4 48.038
v -34.304 -41.4 47.225
v -35.602 -41.4 47.15
v -35.649 -41.4 47.962
v -34.351 -42.2 48.038
v -34.304 -42.2 47.225
v -35.602 -42.2 47.15
v -35.649 -42.2 47.962
v -34.313 -41.4 47.3
v -34.171 -41.4 46.499
v -35.451 -41.4 46.273
v -35.593 -41.4 47.074
v -34.313 -42.2 47.3
v -34.171 -42.2 46.499
v -35.451 -42.2 46.273
v -35.593 -42.2 47.074
v -34.189 -41.4 46.572
v -33.955 -41.4 45.792
v -35.201 -41.4 45.419
v -35.434 -41.4 46.199
v -34.189 -42.2 46.572
v -33.955 -42.2 45.792
v -35.201 -42.2 45.419
v -35.434 -42.2 46.199
v -33.981 -41.4 45.863
v -33.659 -41.4 45.116
v -34.852 -41.4 44.601
v -35.175 -41.4 45.348
v -33.981 -42.2 45.863
v -33.659 -42.2 45.116
v -34.852 -42.2 44.601
v -35.175 -42.2 45.348
v -33.693 -41.4 45.183
v -33.285 -41.4 44.478
v -34.411 -41.4 43.828
v -34.818 -41.4 44.533
v -33.693 -42.2 45.183
v -33.285 -42.2 44.478
v -34.411 -42.2 43.828
v -34.818 -42.2 44.533
v -33.327 -41.4 44.542
v -32.841 -41.4 43.889
v -33.884 -41.4 43.112
v -34.37 -41.4 43.765
v -33.327 -42.2 44.542
v -32.841 -42.2 43.889
v -33.884 -42.2 43.112
v -34.37 -42.2 43.765
v -32.89 -41.4 43.947
v -32.331 -41.4 43.354
v -33.276 -41.4 42.462
v -33.835 -41.4 43.054
v -32.89 -42.2 43.947
v -32.331 -42.2 43.354
v -33.276 -42.2 42.462
v -33.835 -42.2 43.054
v -32.386 -41.4 43.406
v -31.762 -41.4 42.883
v -32.598 -41.4 41.887
v -33.222 -41.4 42.41
v -32.386 -42.2 43.406
v -31.762 -42.2 42.883
v -32.598 -42.2 41.887
v -33.222 -42.2 42.41
v -31.823 -41.4 42.928
v -31.143 -41.4 42.481
v -31.857 -41.4 41.395
v -32.537 -41.4 41.842
v -31.823 -42.2 42.928
v -31.143 -42.2 42.481
v -31.857 -42.2 41.395
v -32.537 -42.2 41.842
v -33.643 -41.4 57.849
v -34.809 -41.4 57.082
v -35.523 -41.4 58.169
v -34.357 -41.4 58.935
v -33.643 -42.2 57.849
v -34.809 -42.2 57.082
v -35.523 -42.2 58.169
v -34.357 -42.2 58.935
v -34.748 -41.4 57.128
v -35.817 -41.4 56.231
v -36.653 -41.4 57.226
v -35.584 -41.4 58.123
v -34.748 -42.2 57.128
v -35.817 -42.2 56.231
v -36.653 -42.2 57.226
v -35.584 -42.2 58.123
v -35.762 -41.4 56.282
v -36.72 -41.4 55.267
v -37.665 -41.4 56.16
v -36.708 -41.4 57.175
v -35.762 -42.2 56.282
v -36.72 -42.2 55.267
v -37.665 -42.2 56.16
v -36.708 -42.2 57.175
v -36.671 -41.4 55.325
v -37.504 -41.4 54.206
v -38.547 -41.4 54.982
v -37.714 -41.4 56.102
v -36.671 -42.2 55.325
v -37.504 -42.2 54.206
v -38.547 -42.2 54.982
v -37.714 -42.2 56.102
v -37.463 -41.4 54.269
v -38.161 -41.4 53.061
v -39.287 -41.4 53.711
v -38.589 -41.4 54.919
v -37.463 -42.2 54.269
v -38.161 -42.2 53.061
v -39.287 -42.2 53.711
v -38.589 -42.2 54.919
v -38.127 -41.4 53.128
v -38.679 -41.4 51.847
v -39.873 -41.4 52.362
v -39.32 -41.4 53.643
v -38.127 -42.2 53.128
v -38.679 -42.2 51.847
v -39.873 -42.2 52.362
v -39.32 -42.2 53.643
v -38.654 -41.4 51.918
v -39.054 -41.4 50.581
v -40.299 -41.4 50.954
v -39.899 -41.4 52.291
v -38.654 -42.2 51.918
v -39.054 -42.2 50.581
v -40.299 -42.2 50.954
v -39.899 -42.2 52.291
v -39.036 -41.4 50.655
v -39.279 -41.4 49.28
v -40.559 -41.4 49.506
v -40.317 -41.4 50.88
v -39.036 -42.2 50.655
v -39.279 -42.2 49.28
v -40.559 -42.2 49.506
v -40.317 -42.2 50.88
v -39.27 -41.4 49.355
v -39.351 -41.4 47.962
v -40.649 -41.4 48.038
v -40.568 -41.4 49.431
v -39.27 -42.2 49.355
v -39.351 -42.2 47.962
v -40.649 -42.2 48.038
v -40.568 -42.2 49.431
v -39.351 -41.4 48.038
v -39.27 -41.4 46.645
v -40.568 -41.4 46.569
v -40.649 -41.4 47.962
v -39.351 -42.2 48.038
v -39.27 -42.2 46.645
v -40.568 -42.2 46.569
v -40.649 -42.2 47.962
v -39.279 -41.4 46.72
v -39.036 -41.4 45.345
v -40.317 -41.4 45.12
v -40.559 -41.4 46.494
v -39.279 -42.2 46.72
v -39.036 -42.2 45.345
v -40.317 -42.2 45.12
v -40.559 -42.2 46.494
v -39.054 -41.4 45.419
v -38.654 -41.4 44.082
v -39.899 -41.4 43.709
v -40.299 -41.4 45.046
v -39.054 -42.2 45.419
v -38.654 -42.2 44.082
v -39.899 -42.2 43.709
v -40.299 -42.2 45.046
v -38.679 -41.4 44.153
v -38.127 -41.4 42.872
v -39.32 -41.4 42.357
v -39.873 -41.4 43.638
v -38.679 -42.2 44.153
v -38.127 -42.2 42.872
v -39.32 -42.2 42.357
v -39.873 -42.2 43.638
v -38.161 -41.4 42.939
v -37.463 -41.4 41.731
v -38.589 -41.4 41.081
v -39.287 -41.4 42.289
v -38.161 -42.2 42.939
v -37.463 -42.2 41.731
v -38.589 -42.2 41.081
v -39.287 -42.2 42.289
v -37.504 -41.4 41.794
v -36.671 -41.4 40.675
v -37.714 -41.4 39.898
v -38.547 -41.4 41.018
v -37.504 -42.2 41.794
v -36.671 -42.2 40.675
v -37.714 -42.2 39.898
v -38.547 -42.2 41.018
v -36.72 -41.4 40.733
v -35.762 -41.4 39.718
v -36.708 -41.4 38.825
v -37.665 -41.4 39.84
v -36.72 -42.2 40.733
v -35.762 -42.2 39.718
v -36.708 -42.2 38.825
v -37.665 -42.2 39.84
v -35.817 -41.4 39.769
v -34.748 -41.4 38.872
v -35.584 -41.4 37.877
v -36.653 -41.4 38.774
v -35.817 -42.2 39.769
v -34.748 -42.2 38.872
v -35.584 -42.2 37.877
v -36.653 -42.2 38.774
v -34.809 -41.4 38.918
v -33.643 -41.4 38.151
v -34.357 -41.4 37.065
v -35.523 -41.4 37.831
v -34.809 -42.2 38.918
v -33.643 -42.2 38.151
v -34.357 -42.2 37.065
v -35.523 -42.2 37.831
v -36.143 -41.4 62.179
v -37.795 -41.4 61.093
v -38.509 -41.4 62.179
v -36.857 -41.4 63.265
v -36.143 -42.2 62.179
v -37.795 -42.2 61.093
v -38.509 -42.2 62.179
v -36.857 -42.2 63.265
v -37.734 -41.4 61.138
v -39.248 -41.4 59.867
v -40.084 -41.4 60.863
v -38.57 -41.4 62.134
v -37.734 -42.2 61.138
v -39.248 -42.2 59.867
v -40.084 -42.2 60.863
v -38.57 -42.2 62.134
v -39.193 -41.4 59.919
v -40.55 -41.4 58.481
v -41.496 -41.4 59.373
v -40.139 -41.4 60.811
v -39.193 -42.2 59.919
v -40.55 -42.2 58.481
v -41.496 -42.2 59.373
v -40.139 -42.2 60.811
v -40.501 -41.4 58.539
v -41.682 -41.4 56.953
v -42.725 -41.4 57.73
v -41.544 -41.4 59.316
v -40.501 -42.2 58.539
v -41.682 -42.2 56.953
v -42.725 -42.2 57.73
v -41.544 -42.2 59.316
v -41.64 -41.4 57.017
v -42.629 -41.4 55.305
v -43.755 -41.4 55.955
v -42.766 -41.4 57.667
v -41.64 -42.2 57.017
v -42.629 -42.2 55.305
v -43.755 -42.2 55.955
v -42.766 -42.2 57.667
v -42.595 -41.4 55.372
v -43.378 -41.4 53.557
v -44.572 -41.4 54.072
v -43.789 -41.4 55.887
v -42.595 -42.2 55.372
v -43.378 -42.2 53.557
v -44.572 -42.2 54.072
v -43.789 -42.2 55.887
v -43.352 -41.4 53.628
v -43.919 -41.4 51.734
v -45.164 -41.4 52.107
v -44.597 -41.4 54.001
v -43.352 -42.2 53.628
v -43.919 -42.2 51.734
v -45.164 -42.2 52.107
v -44.597 -42.2 54.001
v -43.902 -41.4 51.808
v -44.245 -41.4 49.861
v -45.525 -41.4 50.086
v -45.182 -41.4 52.033
v -43.902 -42.2 51.808
v -44.245 -42.2 49.861
v -45.525 -42.2 50.086
v -45.182 -42.2 52.033
v -44.236 -41.4 49.936
v -44.351 -41.4 47.962
v -45.649 -41.4 48.038
v -45.534 -41.4 50.011
v -44.236 -42.2 49.936
v -44.351 -42.2 47.962
v -45.649 -42.2 48.038
v -45.534 -42.2 50.011
v -44.351 -41.4 48.038
v -44.236 -41.4 46.064
v -45.534 -41.4 45.989
v -45.649 -41.4 47.962
v -44.351 -42.2 48.038
v -44.236 -42.2 46.064
v -45.534 -42.2 45.989
v -45.649 -42.2 47.962
v -44.245 -41.4 46.139
v -43.902 -41.4 44.192
v -45.182 -41.4 43.967
v -45.525 -41.4 45.914
v -44.245 -42.2 46.139
v -43.902 -42.2 44.192
v -45.182 -42.2 43.967
v -45.525 -42.2 45.914
v -43.919 -41.4 44.266
v -43.352 -41.4 42.372
v -44.597 -41.4 41.999
v -45.164 -41.4 43.893
v -43.919 -42.2 44.266
v -43.352 -42.2 42.372
v -44.597 -42.2 41.999
v -45.164 -42.2 43.893
v -43.378 -41.4 42.443
v -42.595 -41.4 40.628
v -43.789 -41.4 40.113
v -44.572 -41.4 41.928
v -43.378 -42.2 42.443
v -42.595 -42.2 40.628
v -43.789 -42.2 40.113
v -44.572 -42.2 41.928
v -42.629 -41.4 40.695
v -41.64 -41.4 38.983
v -42.766 -41.4 38.333
v -43.755 -41.4 40.045
v -42.629 -42.2 40.695
v -41.64 -42.2 38.983
v -42.766 -42.2 38.333
v -43.755 -42.2 40.045
v -41.682 -41.4 39.047
v -40.501 -41.4 37.461
v -41.544 -41.4 36.684
v -42.725 -41.4 38.27
v -41.682 -42.2 39.047
v -40.501 -42.2 37.461
v -41.544 -42.2 36.684
v -42.725 -42.2 38.27
v -40.55 -41.4 37.519
v -39.193 -41.4 36.081
v -40.139 -41.4 35.189
v -41.496 -41.4 36.627
v -40.55 -42.2 37.519
v -39.193 -42.2 36.081
v -40.139 -42.2 35.189
v -41.496 -42.2 36.627
v -39.248 -41.4 36.133
v -37.734 -41.4 34.862
v -38.57 -41.4 33.866
v -40.084 -41.4 35.137
v -39.248 -42.2 36.133
v -37.734 -42.2 34.862
v -38.57 -42.2 33.866
v -40.084 -42.2 35.137
v -37.795 -41.4 34.907
v -36.143 -41.4 33.821
v -36.857 -41.4 32.735
v -38.509 -41.4 33.821
v -37.795 -42.2 34.907
v -36.143 -42.2 33.821
v -36.857 -42.2 32.735
v -38.509 -42.2 33.821
v -8.386 -41.4 55.643
v 6.614 -41.4 64.643
v 7.386 -41.4 63.357
v -7.614 -41.4 54.357
v -8.386 -41.85 55.643
v 6.614 -41.85 64.643
v 7.386 -41.85 63.357
v -7.614 -41.85 54.357
v 7.63 -41.4 64.407
v 18.63 -41.4 47.407
v 17.37 -41.4 46.593
v 6.37 -41.4 63.593
v 7.63 -41.85 64.407
v 18.63 -41.85 47.407
v 17.37 -41.85 46.593
v 6.37 -41.85 63.593
v 18.368 -41.4 46.346
v 2.368 -41.4 37.346
v 1.632 -41.4 38.654
v 17.632 -41.4 47.654
v 18.368 -41.85 46.346
v 2.368 -41.85 37.346
v 1.632 -41.85 38.654
v 17.632 -41.85 47.654
v 1.354 -41.4 37.62
v -8.646 -41.4 54.62
v -7.354 -41.4 55.38
v 2.646 -41.4 38.38
v 1.354 -41.85 37.62
v -8.646 -41.85 54.62
v -7.354 -41.85 55.38
v 2.646 -41.85 38.38
v 8.34 -41.4 44.612
v 26.34 -41.4 34.612
v 25.66 -41.4 33.388
v 7.66 -41.4 43.388
v 8.34 -41.85 44.612
v 26.34 -41.85 34.612
v 25.66 -41.85 33.388
v 7.66 -41.85 43.388
v 13.716 -41.4 44.64
v 22.716 -41.4 48.64
v 23.284 -41.4 47.36
v 14.284 -41.4 43.36
v 13.716 -41.85 44.64
v 22.716 -41.85 48.64
v 23.284 -41.85 47.36
v 14.284 -41.85 43.36
v 22.087 -41.4 37.695
v 30.087 -41.4 36.695
v 29.913 -41.4 35.305
v 21.913 -41.4 36.305
v 22.087 -41.85 37.695
v 30.087 -41.85 36.695
v 29.913 -41.85 35.305
v 21.913 -41.85 36.305
v -31 -40.9 35.768
v -25.75 -40.9 35.768
v -25.75 -40.9 35.033
v -31 -40.9 35.033
v -31 -41.4 35.768
v -25.75 -41.4 35.768
v -25.75 -41.4 35.033
v -31 -41.4 35.033
v -31.367 -40.9 31.2
v -31.367 -40.9 35.4
v -30.632 -40.9 35.4
v -30.632 -40.9 31.2
v -31.367 -41.4 31.2
v -31.367 -41.4 35.4
v -30.632 -41.4 35.4
v -30.632 -41.4 31.2
v -31 -40.9 31.568
v -25.75 -40.9 31.568
v -25.75 -40.9 30.833
v -31 -40.9 30.833
v -31 -41.4 31.568
v -25.75 -41.4 31.568
v -25.75 -41.4 30.833
v -31 -41.4 30.833
v -26.117 -40.9 27
v -26.117 -40.9 31.2
v -25.382 -40.9 31.2
v -25.382 -40.9 27
v -26.117 -41.4 27
v -26.117 -41.4 31.2
v -25.382 -41.4 31.2
v -25.382 -41.4 27
v -31 -40.9 27.368
v -25.75 -40.9 27.368
v -25.75 -40.9 26.633
v -31 -40.9 26.633
v -31 -41.4 27.368
v -25.75 -41.4 27.368
v -25.75 -41.4 26.633
v -31 -41.4 26.633
v -23.65 -40.9 35.768
v -18.4 -40.9 35.768
v -18.4 -40.9 35.033
v -23.65 -40.9 35.033
v -23.65 -41.4 35.768
v -18.4 -41.4 35.768
v -18.4 -41.4 35.033
v -23.65 -41.4 35.033
v -24.017 -40.9 27
v -24.017 -40.9 35.4
v -23.282 -40.9 35.4
v -23.282 -40.9 27
v -24.017 -41.4 27
v -24.017 -41.4 35.4
v -23.282 -41.4 35.4
v -23.282 -41.4 27
v -23.65 -40.9 27.368
v -18.4 -40.9 27.368
v -18.4 -40.9 26.633
v -23.65 -40.9 26.633
v -23.65 -41.4 27.368
v -18.4 -41.4 27.368
v -18.4 -41.4 26.633
v -23.65 -41.4 26.633
v -16.3 -40.9 35.768
v -11.05 -40.9 35.768
v -11.05 -40.9 35.033
v -16.3 -40.9 35.033
v -16.3 -41.4 35.768
v -11.05 -41.4 35.768
v -11.05 -41.4 35.033
v -16.3 -41.4 35.033
v -16.667 -40.9 31.2
v -16.667 -40.9 35.4
v -15.932 -40.9 35.4
v -15.932 -40.9 31.2
v -16.667 -41.4 31.2
v -16.667 -41.4 35.4
v -15.932 -41.4 35.4
v -15.932 -41.4 31.2
v -11.417 -40.9 31.2
v -11.417 -40.9 35.4
v -10.682 -40.9 35.4
v -10.682 -40.9 31.2
v -11.417 -41.4 31.2
v -11.417 -41.4 35.4
v -10.682 -41.4 35.4
v -10.682 -41.4 31.2
v -16.3 -40.9 31.568
v -11.05 -40.9 31.568
v -11.05 -40.9 30.833
v -16.3 -40.9 30.833
v -16.3 -41.4 31.568
v -11.05 -41.4 31.568
v -11.05 -41.4 30.833
v -16.3 -41.4 30.833
v -16.667 -40.9 27
v -16.667 -40.9 31.2
v -15.932 -40.9 31.2
v -15.932 -40.9 27
v -16.667 -41.4 27
v -16.667 -41.4 31.2
v -15.932 -41.4 31.2
v -15.932 -41.4 27
v -11.417 -40.9 27
v -11.417 -40.9 31.2
v -10.682 -40.9 31.2
v -10.682 -40.9 27
v -11.417 -41.4 27
v -11.417 -41.4 31.2
v -10.682 -41.4 31.2
v -10.682 -41.4 27
v -9.317 -40.9 27
v -9.317 -40.9 35.4
v -8.582 -40.9 35.4
v -8.582 -40.9 27
v -9.317 -41.4 27
v -9.317 -41.4 35.4
v -8.582 -41.4 35.4
v -8.582 -41.4 27
v -4.067 -40.9 27
v -4.067 -40.9 35.4
v -3.332 -40.9 35.4
v -3.332 -40.9 27
v -4.067 -41.4 27
v -4.067 -41.4 35.4
v -3.332 -41.4 35.4
v -3.332 -41.4 27
v -9.262 -40.9 27.195
v -4.012 -40.9 35.595
v -3.388 -40.9 35.205
v -8.638 -40.9 26.805
v -9.262 -41.4 27.195
v -4.012 -41.4 35.595
v -3.388 -41.4 35.205
v -8.638 -41.4 26.805
v 2.233 -40.9 27
v 2.233 -40.9 35.4
v 2.968 -40.9 35.4
v 2.968 -40.9 27
v 2.233 -41.4 27
v 2.233 -41.4 35.4
v 2.968 -41.4 35.4
v 2.968 -41.4 27
v 7.483 -40.9 27
v 7.483 -40.9 35.4
v 8.218 -40.9 35.4
v 8.218 -40.9 27
v 7.483 -41.4 27
v 7.483 -41.4 35.4
v 8.218 -41.4 35.4
v 8.218 -41.4 27
v 2.6 -40.9 31.568
v 7.85 -40.9 31.568
v 7.85 -40.9 30.833
v 2.6 -40.9 30.833
v 2.6 -41.4 31.568
v 7.85 -41.4 31.568
v 7.85 -41.4 30.833
v 2.6 -41.4 30.833
v 9.95 -40.9 35.768
v 15.2 -40.9 35.768
v 15.2 -40.9 35.033
v 9.95 -40.9 35.033
v 9.95 -41.4 35.768
v 15.2 -41.4 35.768
v 15.2 -41.4 35.033
v 9.95 -41.4 35.033
v 9.95 -40.9 31.568
v 15.2 -40.9 31.568
v 15.2 -40.9 30.833
v 9.95 -40.9 30.833
v 9.95 -41.4 31.568
v 15.2 -41.4 31.568
v 15.2 -41.4 30.833
v 9.95 -41.4 30.833
v 9.95 -40.9 27.368
v 15.2 -40.9 27.368
v 15.2 -40.9 26.633
v 9.95 -40.9 26.633
v 9.95 -41.4 27.368
v 15.2 -41.4 27.368
v 15.2 -41.4 26.633
v 9.95 -41.4 26.633
v 9.583 -40.9 27
v 9.583 -40.9 35.4
v 10.318 -40.9 35.4
v 10.318 -40.9 27
v 9.583 -41.4 27
v 9.583 -41.4 35.4
v 10.318 -41.4 35.4
v 10.318 -41.4 27
v 17.3 -40.9 35.768
v 22.55 -40.9 35.768
v 22.55 -40.9 35.033
v 17.3 -40.9 35.033
v 17.3 -41.4 35.768
v 22.55 -41.4 35.768
v 22.55 -41.4 35.033
v 17.3 -41.4 35.033
v 16.933 -40.9 31.2
v 16.933 -40.9 35.4
v 17.668 -40.9 35.4
v 17.668 -40.9 31.2
v 16.933 -41.4 31.2
v 16.933 -41.4 35.4
v 17.668 -41.4 35.4
v 17.668 -41.4 31.2
v 22.183 -40.9 31.2
v 22.183 -40.9 35.4
v 22.918 -40.9 35.4
v 22.918 -40.9 31.2
v 22.183 -41.4 31.2
v 22.183 -41.4 35.4
v 22.918 -41.4 35.4
v 22.918 -41.4 31.2
v 17.3 -40.9 31.568
v 22.55 -40.9 31.568
v 22.55 -40.9 30.833
v 17.3 -40.9 30.833
v 17.3 -41.4 31.568
v 22.55 -41.4 31.568
v 22.55 -41.4 30.833
v 17.3 -41.4 30.833
v 16.933 -40.9 27
v 16.933 -40.9 31.2
v 17.668 -40.9 31.2
v 17.668 -40.9 27
v 16.933 -41.4 27
v 16.933 -41.4 31.2
v 17.668 -41.4 31.2
v 17.668 -41.4 27
v 17.53 -40.9 31.487
v 22.78 -40.9 27.287
v 22.32 -40.9 26.713
v 17.07 -40.9 30.913
v 17.53 -41.4 31.487
v 22.78 -41.4 27.287
v 22.32 -41.4 26.713
v 17.07 -41.4 30.913
v 24.65 -40.9 35.768
v 29.9 -40.9 35.768
v 29.9 -40.9 35.033
v 24.65 -40.9 35.033
v 24.65 -41.4 35.768
v 29.9 -41.4 35.768
v 29.9 -41.4 35.033
v 24.65 -41.4 35.033
v 24.65 -40.9 31.568
v 29.9 -40.9 31.568
v 29.9 -40.9 30.833
v 24.65 -40.9 30.833
v 24.65 -41.4 31.568
v 29.9 -41.4 31.568
v 29.9 -41.4 30.833
v 24.65 -41.4 30.833
v 24.65 -40.9 27.368
v 29.9 -40.9 27.368
v 29.9 -40.9 26.633
v 24.65 -40.9 26.633
v 24.65 -41.4 27.368
v 29.9 -41.4 27.368
v 29.9 -41.4 26.633
v 24.65 -41.4 26.633
v 24.283 -40.9 27
v 24.283 -40.9 35.4
v 25.018 -40.9 35.4
v 25.018 -40.9 27
v 24.283 -41.4 27
v 24.283 -41.4 35.4
v 25.018 -41.4 35.4
v 25.018 -41.4 27
v -47.9 -40.9 190
v -47.9 -38.5 190
v -48.003 -40.9 190.912
v -48.003 -38.5 190.912
v -48.306 -40.9 191.779
v -48.306 -38.5 191.779
v -48.794 -40.9 192.556
v -48.794 -38.5 192.556
v -49.444 -40.9 193.206
v -49.444 -38.5 193.206
v -50.221 -40.9 193.694
v -50.221 -38.5 193.694
v -51.088 -40.9 193.997
v -51.088 -38.5 193.997
v -52 -40.9 194.1
v -52 -38.5 194.1
v -52.912 -40.9 193.997
v -52.912 -38.5 193.997
v -53.779 -40.9 193.694
v -53.779 -38.5 193.694
v -54.556 -40.9 193.206
v -54.556 -38.5 193.206
v -55.206 -40.9 192.556
v -55.206 -38.5 192.556
v -55.694 -40.9 191.779
v -55.694 -38.5 191.779
v -55.997 -40.9 190.912
v -55.997 -38.5 190.912
v -56.1 -40.9 190
v -56.1 -38.5 190
v -55.997 -40.9 189.088
v -55.997 -38.5 189.088
v -55.694 -40.9 188.221
v -55.694 -38.5 188.221
v -55.206 -40.9 187.444
v -55.206 -38.5 187.444
v -54.556 -40.9 186.794
v -54.556 -38.5 186.794
v -53.779 -40.9 186.306
v -53.779 -38.5 186.306
v -52.912 -40.9 186.003
v -52.912 -38.5 186.003
v -52 -40.9 185.9
v -52 -38.5 185.9
v -51.088 -40.9 186.003
v -51.088 -38.5 186.003
v -50.221 -40.9 186.306
v -50.221 -38.5 186.306
v -49.444 -40.9 186.794
v -49.444 -38.5 186.794
v -48.794 -40.9 187.444
v -48.794 -38.5 187.444
v -48.306 -40.9 188.221
v -48.306 -38.5 188.221
v -48.003 -40.9 189.088
v -48.003 -38.5 189.088
v -52 -40.9 190
v -52 -38.5 190
v -54 -41.05 190.225
v -50 -41.05 190.225
v -50 -41.05 189.775
v -54 -41.05 189.775
v -54 -41.45 190.225
v -50 -41.45 190.225
v -50 -41.45 189.775
v -54 -41.45 189.775
v -52.225 -41.05 188
v -52.225 -41.05 192
v -51.775 -41.05 192
v -51.775 -41.05 188
v -52.225 -41.45 188
v -52.225 -41.45 192
v -51.775 -41.45 192
v -51.775 -41.45 188
v 56.1 -40.9 190
v 56.1 -38.5 190
v 55.997 -40.9 190.912
v 55.997 -38.5 190.912
v 55.694 -40.9 191.779
v 55.694 -38.5 191.779
v 55.206 -40.9 192.556
v 55.206 -38.5 192.556
v 54.556 -40.9 193.206
v 54.556 -38.5 193.206
v 53.779 -40.9 193.694
v 53.779 -38.5 193.694
v 52.912 -40.9 193.997
v 52.912 -38.5 193.997
v 52 -40.9 194.1
v 52 -38.5 194.1
v 51.088 -40.9 193.997
v 51.088 -38.5 193.997
v 50.221 -40.9 193.694
v 50.221 -38.5 193.694
v 49.444 -40.9 193.206
v 49.444 -38.5 193.206
v 48.794 -40.9 192.556
v 48.794 -38.5 192.556
v 48.306 -40.9 191.779
v 48.306 -38.5 191.779
v 48.003 -40.9 190.912
v 48.003 -38.5 190.912
v 47.9 -40.9 190
v 47.9 -38.5 190
v 48.003 -40.9 189.088
v 48.003 -38.5 189.088
v 48.306 -40.9 188.221
v 48.306 -38.5 188.221
v 48.794 -40.9 187.444
v 48.794 -38.5 187.444
v 49.444 -40.9 186.794
v 49.444 -38.5 186.794
v 50.221 -40.9 186.306
v 50.221 -38.5 186.306
v 51.088 -40.9 186.003
v 51.088 -38.5 186.003
v 52 -40.9 185.9
v 52 -38.5 185.9
v 52.912 -40.9 186.003
v 52.912 -38.5 186.003
v 53.779 -40.9 186.306
v 53.779 -38.5 186.306
v 54.556 -40.9 186.794
v 54.556 -38.5 186.794
v 55.206 -40.9 187.444
v 55.206 -38.5 187.444
v 55.694 -40.9 188.221
v 55.694 -38.5 188.221
v 55.997 -40.9 189.088
v 55.997 -38.5 189.088
v 52 -40.9 190
v 52 -38.5 190
v 50 -41.05 190.225
v 54 -41.05 190.225
v 54 -41.05 189.775
v 50 -41.05 189.775
v 50 -41.45 190.225
v 54 -41.45 190.225
v 54 -41.45 189.775
v 50 -41.45 189.775
v 51.775 -41.05 188
v 51.775 -41.05 192
v 52.225 -41.05 192
v 52.225 -41.05 188
v 51.775 -41.45 188
v 51.775 -41.45 192
v 52.225 -41.45 192
v 52.225 -41.45 188
v -47.9 -40.9 10
v -47.9 -38.5 10
v -48.003 -40.9 10.912
v -48.003 -38.5 10.912
v -48.306 -40.9 11.779
v -48.306 -38.5 11.779
v -48.794 -40.9 12.556
v -48.794 -38.5 12.556
v -49.444 -40.9 13.206
v -49.444 -38.5 13.206
v -50.221 -40.9 13.694
v -50.221 -38.5 13.694
v -51.088 -40.9 13.997
v -51.088 -38.5 13.997
v -52 -40.9 14.1
v -52 -38.5 14.1
v -52.912 -40.9 13.997
v -52.912 -38.5 13.997
v -53.779 -40.9 13.694
v -53.779 -38.5 13.694
v -54.556 -40.9 13.206
v -54.556 -38.5 13.206
v -55.206 -40.9 12.556
v -55.206 -38.5 12.556
v -55.694 -40.9 11.779
v -55.694 -38.5 11.779
v -55.997 -40.9 10.912
v -55.997 -38.5 10.912
v -56.1 -40.9 10
v -56.1 -38.5 10
v -55.997 -40.9 9.088
v -55.997 -38.5 9.088
v -55.694 -40.9 8.221
v -55.694 -38.5 8.221
v -55.206 -40.9 7.444
v -55.206 -38.5 7.444
v -54.556 -40.9 6.794
v -54.556 -38.5 6.794
v -53.779 -40.9 6.306
v -53.779 -38.5 6.306
v -52.912 -40.9 6.003
v -52.912 -38.5 6.003
v -52 -40.9 5.9
v -52 -38.5 5.9
v -51.088 -40.9 6.003
v -51.088 -38.5 6.003
v -50.221 -40.9 6.306
v -50.221 -38.5 6.306
v -49.444 -40.9 6.794
v -49.444 -38.5 6.794
v -48.794 -40.9 7.444
v -48.794 -38.5 7.444
v -48.306 -40.9 8.221
v -48.306 -38.5 8.221
v -48.003 -40.9 9.088
v -48.003 -38.5 9.088
v -52 -40.9 10
v -52 -38.5 10
v -54 -41.05 10.225
v -50 -41.05 10.225
v -50 -41.05 9.775
v -54 -41.05 9.775
v -54 -41.45 10.225
v -50 -41.45 10.225
v -50 -41.45 9.775
v -54 -41.45 9.775
v -52.225 -41.05 8
v -52.225 -41.05 12
v -51.775 -41.05 12
v -51.775 -41.05 8
v -52.225 -41.45 8
v -52.225 -41.45 12
v -51.775 -41.45 12
v -51.775 -41.45 8
v 56.1 -40.9 10
v 56.1 -38.5 10
v 55.997 -40.9 10.912
v 55.997 -38.5 10.912
v 55.694 -40.9 11.779
v 55.694 -38.5 11.779
v 55.206 -40.9 12.556
v 55.206 -38.5 12.556
v 54.556 -40.9 13.206
v 54.556 -38.5 13.206
v 53.779 -40.9 13.694
v 53.779 -38.5 13.694
v 52.912 -40.9 13.997
v 52.912 -38.5 13.997
v 52 -40.9 14.1
v 52 -38.5 14.1
v 51.088 -40.9 13.997
v 51.088 -38.5 13.997
v 50.221 -40.9 13.694
v 50.221 -38.5 13.694
v 49.444 -40.9 13.206
v 49.444 -38.5 13.206
v 48.794 -40.9 12.556
v 48.794 -38.5 12.556
v 48.306 -40.9 11.779
v 48.306 -38.5 11.779
v 48.003 -40.9 10.912
v 48.003 -38.5 10.912
v 47.9 -40.9 10
v 47.9 -38.5 10
v 48.003 -40.9 9.088
v 48.003 -38.5 9.088
v 48.306 -40.9 8.221
v 48.306 -38.5 8.221
v 48.794 -40.9 7.444
v 48.794 -38.5 7.444
v 49.444 -40.9 6.794
v 49.444 -38.5 6.794
v 50.221 -40.9 6.306
v 50.221 -38.5 6.306
v 51.088 -40.9 6.003
v 51.088 -38.5 6.003
v 52 -40.9 5.9
v 52 -38.5 5.9
v 52.912 -40.9 6.003
v 52.912 -38.5 6.003
v 53.779 -40.9 6.306
v 53.779 -38.5 6.306
v 54.556 -40.9 6.794
v 54.556 -38.5 6.794
v 55.206 -40.9 7.444
v 55.206 -38.5 7.444
v 55.694 -40.9 8.221
v 55.694 -38.5 8.221
v 55.997 -40.9 9.088
v 55.997 -38.5 9.088
v 52 -40.9 10
v 52 -38.5 10
v 50 -41.05 10.225
v 54 -41.05 10.225
v 54 -41.05 9.775
v 50 -41.05 9.775
v 50 -41.45 10.225
v 54 -41.45 10.225
v 54 -41.45 9.775
v 50 -41.45 9.775
v 51.775 -41.05 8
v 51.775 -41.05 12
v 52.225 -41.05 12
v 52.225 -41.05 8
v 51.775 -41.45 8
v 51.775 -41.45 12
v 52.225 -41.45 12
v 52.225 -41.45 8
v 60 0 140
v 66 0 140
v 60 2.084 139.818
v 66 2.084 139.818
v 60 4.104 139.276
v 66 4.104 139.276
v 60 6 138.392
v 66 6 138.392
v 60 7.713 137.193
v 66 7.713 137.193
v 60 9.193 135.713
v 66 9.193 135.713
v 60 10.392 134
v 66 10.392 134
v 60 11.276 132.104
v 66 11.276 132.104
v 60 11.818 130.084
v 66 11.818 130.084
v 60 12 128
v 66 12 128
v 60 11.818 125.916
v 66 11.818 125.916
v 60 11.276 123.896
v 66 11.276 123.896
v 60 10.392 122
v 66 10.392 122
v 60 9.193 120.287
v 66 9.193 120.287
v 60 7.713 118.807
v 66 7.713 118.807
v 60 6 117.608
v 66 6 117.608
v 60 4.104 116.724
v 66 4.104 116.724
v 60 2.084 116.182
v 66 2.084 116.182
v 60 0 116
v 66 0 116
v 60 -2.084 116.182
v 66 -2.084 116.182
v 60 -4.104 116.724
v 66 -4.104 116.724
v 60 -6 117.608
v 66 -6 117.608
v 60 -7.713 118.807
v 66 -7.713 118.807
v 60 -9.193 120.287
v 66 -9.193 120.287
v 60 -10.392 122
v 66 -10.392 122
v 60 -11.276 123.896
v 66 -11.276 123.896
v 60 -11.818 125.916
v 66 -11.818 125.916
v 60 -12 128
v 66 -12 128
v 60 -11.818 130.084
v 66 -11.818 130.084
v 60 -11.276 132.104
v 66 -11.276 132.104
v 60 -10.392 134
v 66 -10.392 134
v 60 -9.193 135.713
v 66 -9.193 135.713
v 60 -7.713 137.193
v 66 -7.713 137.193
v 60 -6 138.392
v 66 -6 138.392
v 60 -4.104 139.276
v 66 -4.104 139.276
v 60 -2.084 139.818
v 66 -2.084 139.818
v 60 0 128
v 66 0 128
v 65.8 0 137.2
v 66.6 0 137.2
v 65.8 1.598 137.06
v 66.6 1.598 137.06
v 65.8 3.147 136.645
v 66.6 3.147 136.645
v 65.8 4.6 135.967
v 66.6 4.6 135.967
v 65.8 5.914 135.048
v 66.6 5.914 135.048
v 65.8 7.048 133.914
v 66.6 7.048 133.914
v 65.8 7.967 132.6
v 66.6 7.967 132.6
v 65.8 8.645 131.147
v 66.6 8.645 131.147
v 65.8 9.06 129.598
v 66.6 9.06 129.598
v 65.8 9.2 128
v 66.6 9.2 128
v 65.8 9.06 126.402
v 66.6 9.06 126.402
v 65.8 8.645 124.853
v 66.6 8.645 124.853
v 65.8 7.967 123.4
v 66.6 7.967 123.4
v 65.8 7.048 122.086
v 66.6 7.048 122.086
v 65.8 5.914 120.952
v 66.6 5.914 120.952
v 65.8 4.6 120.033
v 66.6 4.6 120.033
v 65.8 3.147 119.355
v 66.6 3.147 119.355
v 65.8 1.598 118.94
v 66.6 1.598 118.94
v 65.8 0 118.8
v 66.6 0 118.8
v 65.8 -1.598 118.94
v 66.6 -1.598 118.94
v 65.8 -3.147 119.355
v 66.6 -3.147 119.355
v 65.8 -4.6 120.033
v 66.6 -4.6 120.033
v 65.8 -5.914 120.952
v 66.6 -5.914 120.952
v 65.8 -7.048 122.086
v 66.6 -7.048 122.086
v 65.8 -7.967 123.4
v 66.6 -7.967 123.4
v 65.8 -8.645 124.853
v 66.6 -8.645 124.853
v 65.8 -9.06 126.402
v 66.6 -9.06 126.402
v 65.8 -9.2 128
v 66.6 -9.2 128
v 65.8 -9.06 129.598
v 66.6 -9.06 129.598
v 65.8 -8.645 131.147
v 66.6 -8.645 131.147
v 65.8 -7.967 132.6
v 66.6 -7.967 132.6
v 65.8 -7.048 133.914
v 66.6 -7.048 133.914
v 65.8 -5.914 135.048
v 66.6 -5.914 135.048
v 65.8 -4.6 135.967
v 66.6 -4.6 135.967
v 65.8 -3.147 136.645
v 66.6 -3.147 136.645
v 65.8 -1.598 137.06
v 66.6 -1.598 137.06
v 65.8 0 128
v 66.6 0 128
v 66.3 0 129.1
v 67.2 0 129.1
v 66.3 0.477 128.991
v 67.2 0.477 128.991
v 66.3 0.86 128.686
v 67.2 0.86 128.686
v 66.3 1.072 128.245
v 67.2 1.072 128.245
v 66.3 1.072 127.755
v 67.2 1.072 127.755
v 66.3 0.86 127.314
v 67.2 0.86 127.314
v 66.3 0.477 127.009
v 67.2 0.477 127.009
v 66.3 0 126.9
v 67.2 0 126.9
v 66.3 -0.477 127.009
v 67.2 -0.477 127.009
v 66.3 -0.86 127.314
v 67.2 -0.86 127.314
v 66.3 -1.072 127.755
v 67.2 -1.072 127.755
v 66.3 -1.072 128.245
v 67.2 -1.072 128.245
v 66.3 -0.86 128.686
v 67.2 -0.86 128.686
v 66.3 -0.477 128.991
v 67.2 -0.477 128.991
v 66.3 0 128
v 67.2 0 128
v 66.3 0 125.1
v 67.2 0 125.1
v 66.3 0.477 124.991
v 67.2 0.477 124.991
v 66.3 0.86 124.686
v 67.2 0.86 124.686
v 66.3 1.072 124.245
v 67.2 1.072 124.245
v 66.3 1.072 123.755
v 67.2 1.072 123.755
v 66.3 0.86 123.314
v 67.2 0.86 123.314
v 66.3 0.477 123.009
v 67.2 0.477 123.009
v 66.3 0 122.9
v 67.2 0 122.9
v 66.3 -0.477 123.009
v 67.2 -0.477 123.009
v 66.3 -0.86 123.314
v 67.2 -0.86 123.314
v 66.3 -1.072 123.755
v 67.2 -1.072 123.755
v 66.3 -1.072 124.245
v 67.2 -1.072 124.245
v 66.3 -0.86 124.686
v 67.2 -0.86 124.686
v 66.3 -0.477 124.991
v 67.2 -0.477 124.991
v 66.3 0 124
v 67.2 0 124
v 66.3 0 133.1
v 67.2 0 133.1
v 66.3 0.477 132.991
v 67.2 0.477 132.991
v 66.3 0.86 132.686
v 67.2 0.86 132.686
v 66.3 1.072 132.245
v 67.2 1.072 132.245
v 66.3 1.072 131.755
v 67.2 1.072 131.755
v 66.3 0.86 131.314
v 67.2 0.86 131.314
v 66.3 0.477 131.009
v 67.2 0.477 131.009
v 66.3 0 130.9
v 67.2 0 130.9
v 66.3 -0.477 131.009
v 67.2 -0.477 131.009
v 66.3 -0.86 131.314
v 67.2 -0.86 131.314
v 66.3 -1.072 131.755
v 67.2 -1.072 131.755
v 66.3 -1.072 132.245
v 67.2 -1.072 132.245
v 66.3 -0.86 132.686
v 67.2 -0.86 132.686
v 66.3 -0.477 132.991
v 67.2 -0.477 132.991
v 66.3 0 132
v 67.2 0 132
v 66.3 -4 129.1
v 67.2 -4 129.1
v 66.3 -3.523 128.991
v 67.2 -3.523 128.991
v 66.3 -3.14 128.686
v 67.2 -3.14 128.686
v 66.3 -2.928 128.245
v 67.2 -2.928 128.245
v 66.3 -2.928 127.755
v 67.2 -2.928 127.755
v 66.3 -3.14 127.314
v 67.2 -3.14 127.314
v 66.3 -3.523 127.009
v 67.2 -3.523 127.009
v 66.3 -4 126.9
v 67.2 -4 126.9
v 66.3 -4.477 127.009
v 67.2 -4.477 127.009
v 66.3 -4.86 127.314
v 67.2 -4.86 127.314
v 66.3 -5.072 127.755
v 67.2 -5.072 127.755
v 66.3 -5.072 128.245
v 67.2 -5.072 128.245
v 66.3 -4.86 128.686
v 67.2 -4.86 128.686
v 66.3 -4.477 128.991
v 67.2 -4.477 128.991
v 66.3 -4 128
v 67.2 -4 128
v 66.3 4 129.1
v 67.2 4 129.1
v 66.3 4.477 128.991
v 67.2 4.477 128.991
v 66.3 4.86 128.686
v 67.2 4.86 128.686
v 66.3 5.072 128.245
v 67.2 5.072 128.245
v 66.3 5.072 127.755
v 67.2 5.072 127.755
v 66.3 4.86 127.314
v 67.2 4.86 127.314
v 66.3 4.477 127.009
v 67.2 4.477 127.009
v 66.3 4 126.9
v 67.2 4 126.9
v 66.3 3.523 127.009
v 67.2 3.523 127.009
v 66.3 3.14 127.314
v 67.2 3.14 127.314
v 66.3 2.928 127.755
v 67.2 2.928 127.755
v 66.3 2.928 128.245
v 67.2 2.928 128.245
v 66.3 3.14 128.686
v 67.2 3.14 128.686
v 66.3 3.523 128.991
v 67.2 3.523 128.991
v 66.3 4 128
v 67.2 4 128
v 66.3 -3 126.1
v 67.2 -3 126.1
v 66.3 -2.523 125.991
v 67.2 -2.523 125.991
v 66.3 -2.14 125.686
v 67.2 -2.14 125.686
v 66.3 -1.928 125.245
v 67.2 -1.928 125.245
v 66.3 -1.928 124.755
v 67.2 -1.928 124.755
v 66.3 -2.14 124.314
v 67.2 -2.14 124.314
v 66.3 -2.523 124.009
v 67.2 -2.523 124.009
v 66.3 -3 123.9
v 67.2 -3 123.9
v 66.3 -3.477 124.009
v 67.2 -3.477 124.009
v 66.3 -3.86 124.314
v 67.2 -3.86 124.314
v 66.3 -4.072 124.755
v 67.2 -4.072 124.755
v 66.3 -4.072 125.245
v 67.2 -4.072 125.245
v 66.3 -3.86 125.686
v 67.2 -3.86 125.686
v 66.3 -3.477 125.991
v 67.2 -3.477 125.991
v 66.3 -3 125
v 67.2 -3 125
v 66.3 -3 132.1
v 67.2 -3 132.1
v 66.3 -2.523 131.991
v 67.2 -2.523 131.991
v 66.3 -2.14 131.686
v 67.2 -2.14 131.686
v 66.3 -1.928 131.245
v 67.2 -1.928 131.245
v 66.3 -1.928 130.755
v 67.2 -1.928 130.755
v 66.3 -2.14 130.314
v 67.2 -2.14 130.314
v 66.3 -2.523 130.009
v 67.2 -2.523 130.009
v 66.3 -3 129.9
v 67.2 -3 129.9
v 66.3 -3.477 130.009
v 67.2 -3.477 130.009
v 66.3 -3.86 130.314
v 67.2 -3.86 130.314
v 66.3 -4.072 130.755
v 67.2 -4.072 130.755
v 66.3 -4.072 131.245
v 67.2 -4.072 131.245
v 66.3 -3.86 131.686
v 67.2 -3.86 131.686
v 66.3 -3.477 131.991
v 67.2 -3.477 131.991
v 66.3 -3 131
v 67.2 -3 131
v 66.3 3 126.1
v 67.2 3 126.1
v 66.3 3.477 125.991
v 67.2 3.477 125.991
v 66.3 3.86 125.686
v 67.2 3.86 125.686
v 66.3 4.072 125.245
v 67.2 4.072 125.245
v 66.3 4.072 124.755
v 67.2 4.072 124.755
v 66.3 3.86 124.314
v 67.2 3.86 124.314
v 66.3 3.477 124.009
v 67.2 3.477 124.009
v 66.3 3 123.9
v 67.2 3 123.9
v 66.3 2.523 124.009
v 67.2 2.523 124.009
v 66.3 2.14 124.314
v 67.2 2.14 124.314
v 66.3 1.928 124.755
v 67.2 1.928 124.755
v 66.3 1.928 125.245
v 67.2 1.928 125.245
v 66.3 2.14 125.686
v 67.2 2.14 125.686
v 66.3 2.523 125.991
v 67.2 2.523 125.991
v 66.3 3 125
v 67.2 3 125
v 66.3 3 132.1
v 67.2 3 132.1
v 66.3 3.477 131.991
v 67.2 3.477 131.991
v 66.3 3.86 131.686
v 67.2 3.86 131.686
v 66.3 4.072 131.245
v 67.2 4.072 131.245
v 66.3 4.072 130.755
v 67.2 4.072 130.755
v 66.3 3.86 130.314
v 67.2 3.86 130.314
v 66.3 3.477 130.009
v 67.2 3.477 130.009
v 66.3 3 129.9
v 67.2 3 129.9
v 66.3 2.523 130.009
v 67.2 2.523 130.009
v 66.3 2.14 130.314
v 67.2 2.14 130.314
v 66.3 1.928 130.755
v 67.2 1.928 130.755
v 66.3 1.928 131.245
v 67.2 1.928 131.245
v 66.3 2.14 131.686
v 67.2 2.14 131.686
v 66.3 2.523 131.991
v 67.2 2.523 131.991
v 66.3 3 131
v 67.2 3 131
v 8.5 0 200
v 8.5 0 206
v 8.371 1.476 200
v 8.371 1.476 206
v 7.987 2.907 200
v 7.987 2.907 206
v 7.361 4.25 200
v 7.361 4.25 206
v 6.511 5.464 200
v 6.511 5.464 206
v 5.464 6.511 200
v 5.464 6.511 206
v 4.25 7.361 200
v 4.25 7.361 206
v 2.907 7.987 200
v 2.907 7.987 206
v 1.476 8.371 200
v 1.476 8.371 206
v 0 8.5 200
v 0 8.5 206
v -1.476 8.371 200
v -1.476 8.371 206
v -2.907 7.987 200
v -2.907 7.987 206
v -4.25 7.361 200
v -4.25 7.361 206
v -5.464 6.511 200
v -5.464 6.511 206
v -6.511 5.464 200
v -6.511 5.464 206
v -7.361 4.25 200
v -7.361 4.25 206
v -7.987 2.907 200
v -7.987 2.907 206
v -8.371 1.476 200
v -8.371 1.476 206
v -8.5 0 200
v -8.5 0 206
v -8.371 -1.476 200
v -8.371 -1.476 206
v -7.987 -2.907 200
v -7.987 -2.907 206
v -7.361 -4.25 200
v -7.361 -4.25 206
v -6.511 -5.464 200
v -6.511 -5.464 206
v -5.464 -6.511 200
v -5.464 -6.511 206
v -4.25 -7.361 200
v -4.25 -7.361 206
v -2.907 -7.987 200
v -2.907 -7.987 206
v -1.476 -8.371 200
v -1.476 -8.371 206
v 0 -8.5 200
v 0 -8.5 206
v 1.476 -8.371 200
v 1.476 -8.371 206
v 2.907 -7.987 200
v 2.907 -7.987 206
v 4.25 -7.361 200
v 4.25 -7.361 206
v 5.464 -6.511 200
v 5.464 -6.511 206
v 6.511 -5.464 200
v 6.511 -5.464 206
v 7.361 -4.25 200
v 7.361 -4.25 206
v 7.987 -2.907 200
v 7.987 -2.907 206
v 8.371 -1.476 200
v 8.371 -1.476 206
v 0 0 200
v 0 0 206
v 5.3 0 205.6
v 5.3 0 206.8
v 5.219 0.92 205.6
v 5.219 0.92 206.8
v 4.98 1.813 205.6
v 4.98 1.813 206.8
v 4.59 2.65 205.6
v 4.59 2.65 206.8
v 4.06 3.407 205.6
v 4.06 3.407 206.8
v 3.407 4.06 205.6
v 3.407 4.06 206.8
v 2.65 4.59 205.6
v 2.65 4.59 206.8
v 1.813 4.98 205.6
v 1.813 4.98 206.8
v 0.92 5.219 205.6
v 0.92 5.219 206.8
v 0 5.3 205.6
v 0 5.3 206.8
v -0.92 5.219 205.6
v -0.92 5.219 206.8
v -1.813 4.98 205.6
v -1.813 4.98 206.8
v -2.65 4.59 205.6
v -2.65 4.59 206.8
v -3.407 4.06 205.6
v -3.407 4.06 206.8
v -4.06 3.407 205.6
v -4.06 3.407 206.8
v -4.59 2.65 205.6
v -4.59 2.65 206.8
v -4.98 1.813 205.6
v -4.98 1.813 206.8
v -5.219 0.92 205.6
v -5.219 0.92 206.8
v -5.3 0 205.6
v -5.3 0 206.8
v -5.219 -0.92 205.6
v -5.219 -0.92 206.8
v -4.98 -1.813 205.6
v -4.98 -1.813 206.8
v -4.59 -2.65 205.6
v -4.59 -2.65 206.8
v -4.06 -3.407 205.6
v -4.06 -3.407 206.8
v -3.407 -4.06 205.6
v -3.407 -4.06 206.8
v -2.65 -4.59 205.6
v -2.65 -4.59 206.8
v -1.813 -4.98 205.6
v -1.813 -4.98 206.8
v -0.92 -5.219 205.6
v -0.92 -5.219 206.8
v 0 -5.3 205.6
v 0 -5.3 206.8
v 0.92 -5.219 205.6
v 0.92 -5.219 206.8
v 1.813 -4.98 205.6
v 1.813 -4.98 206.8
v 2.65 -4.59 205.6
v 2.65 -4.59 206.8
v 3.407 -4.06 205.6
v 3.407 -4.06 206.8
v 4.06 -3.407 205.6
v 4.06 -3.407 206.8
v 4.59 -2.65 205.6
v 4.59 -2.65 206.8
v 4.98 -1.813 205.6
v 4.98 -1.813 206.8
v 5.219 -0.92 205.6
v 5.219 -0.92 206.8
v 0 0 205.6
v 0 0 206.8
v 2.3 0 206.35
v 2.3 0 207.65
v 2.25 0.478 206.35
v 2.25 0.478 207.65
v 2.101 0.935 206.35
v 2.101 0.935 207.65
v 1.861 1.352 206.35
v 1.861 1.352 207.65
v 1.539 1.709 206.35
v 1.539 1.709 207.65
v 1.15 1.992 206.35
v 1.15 1.992 207.65
v 0.711 2.187 206.35
v 0.711 2.187 207.65
v 0.24 2.287 206.35
v 0.24 2.287 207.65
v -0.24 2.287 206.35
v -0.24 2.287 207.65
v -0.711 2.187 206.35
v -0.711 2.187 207.65
v -1.15 1.992 206.35
v -1.15 1.992 207.65
v -1.539 1.709 206.35
v -1.539 1.709 207.65
v -1.861 1.352 206.35
v -1.861 1.352 207.65
v -2.101 0.935 206.35
v -2.101 0.935 207.65
v -2.25 0.478 206.35
v -2.25 0.478 207.65
v -2.3 0 206.35
v -2.3 0 207.65
v -2.25 -0.478 206.35
v -2.25 -0.478 207.65
v -2.101 -0.935 206.35
v -2.101 -0.935 207.65
v -1.861 -1.352 206.35
v -1.861 -1.352 207.65
v -1.539 -1.709 206.35
v -1.539 -1.709 207.65
v -1.15 -1.992 206.35
v -1.15 -1.992 207.65
v -0.711 -2.187 206.35
v -0.711 -2.187 207.65
v -0.24 -2.287 206.35
v -0.24 -2.287 207.65
v 0.24 -2.287 206.35
v 0.24 -2.287 207.65
v 0.711 -2.187 206.35
v 0.711 -2.187 207.65
v 1.15 -1.992 206.35
v 1.15 -1.992 207.65
v 1.539 -1.709 206.35
v 1.539 -1.709 207.65
v 1.861 -1.352 206.35
v 1.861 -1.352 207.65
v 2.101 -0.935 206.35
v 2.101 -0.935 207.65
v 2.25 -0.478 206.35
v 2.25 -0.478 207.65
v 0 0 206.35
v 0 0 207.65
v -54 -38.6 180.35
v 54 -38.6 180.35
v 54 -38.6 179.65
v -54 -38.6 179.65
v -54 -38.95 180.35
v 54 -38.95 180.35
v 54 -38.95 179.65
v -54 -38.95 179.65
v -54 -38.6 76.35
v 54 -38.6 76.35
v 54 -38.6 75.65
v -54 -38.6 75.65
v -54 -38.95 76.35
v 54 -38.95 76.35
v 54 -38.95 75.65
v -54 -38.95 75.65
o white_plastic_enclosure_120x200x75mm
usemtl white_plastic
f 57 1 2
f 58 30 29
f 1 29 30 2
f 57 2 3
f 58 31 30
f 2 30 31 3
f 57 3 4
f 58 32 31
f 3 31 32 4
f 57 4 5
f 58 33 32
f 4 32 33 5
f 57 5 6
f 58 34 33
f 5 33 34 6
f 57 6 7
f 58 35 34
f 6 34 35 7
f 57 7 8
f 58 36 35
f 7 35 36 8
f 57 8 9
f 58 37 36
f 8 36 37 9
f 57 9 10
f 58 38 37
f 9 37 38 10
f 57 10 11
f 58 39 38
f 10 38 39 11
f 57 11 12
f 58 40 39
f 11 39 40 12
f 57 12 13
f 58 41 40
f 12 40 41 13
f 57 13 14
f 58 42 41
f 13 41 42 14
f 57 14 15
f 58 43 42
f 14 42 43 15
f 57 15 16
f 58 44 43
f 15 43 44 16
f 57 16 17
f 58 45 44
f 16 44 45 17
f 57 17 18
f 58 46 45
f 17 45 46 18
f 57 18 19
f 58 47 46
f 18 46 47 19
f 57 19 20
f 58 48 47
f 19 47 48 20
f 57 20 21
f 58 49 48
f 20 48 49 21
f 57 21 22
f 58 50 49
f 21 49 50 22
f 57 22 23
f 58 51 50
f 22 50 51 23
f 57 23 24
f 58 52 51
f 23 51 52 24
f 57 24 25
f 58 53 52
f 24 52 53 25
f 57 25 26
f 58 54 53
f 25 53 54 26
f 57 26 27
f 58 55 54
f 26 54 55 27
f 57 27 28
f 58 56 55
f 27 55 56 28
f 57 28 1
f 58 29 56
f 28 56 29 1
o front_black_abs_bezel
usemtl black_abs
f 59 60 61 62
f 64 63 66 65
f 63 59 62 66
f 60 64 65 61
f 62 61 65 66
f 63 64 60 59
o lcd_recess_outer_frame
usemtl black_hole
f 67 68 69 70
f 72 71 74 73
f 71 67 70 74
f 68 72 73 69
f 70 69 73 74
f 71 72 68 67
o lcd_inner_frame
usemtl black_abs
f 75 76 77 78
f 80 79 82 81
f 79 75 78 82
f 76 80 81 77
f 78 77 81 82
f 79 80 76 75
o lcd_blue_display
usemtl blue_lcd
f 83 84 85 86
f 88 87 90 89
f 87 83 86 90
f 84 88 89 85
f 86 85 89 90
f 87 88 84 83
o clear_acrylic_lcd_cover
usemtl clear_acrylic
f 91 92 93 94
f 96 95 98 97
f 95 91 94 98
f 92 96 97 93
f 94 93 97 98
f 95 96 92 91
o acrylic_highlight
usemtl acrylic_highlight
f 99 100 101 102
f 104 103 106 105
f 103 99 102 106
f 100 104 105 101
f 102 101 105 106
f 103 104 100 99
o white_scan_sticker
usemtl sticker_white
f 107 108 109 110
f 112 111 114 113
f 111 107 110 114
f 108 112 113 109
f 110 109 113 114
f 111 112 108 107
o sticker_border_top
usemtl sticker_blue
f 115 116 117 118
f 120 119 122 121
f 119 115 118 122
f 116 120 121 117
f 118 117 121 122
f 119 120 116 115
o sticker_border_bottom
f 123 124 125 126
f 128 127 130 129
f 127 123 126 130
f 124 128 129 125
f 126 125 129 130
f 127 128 124 123
o sticker_border_left
f 131 132 133 134
f 136 135 138 137
f 135 131 134 138
f 132 136 137 133
f 134 133 137 138
f 135 136 132 131
o sticker_border_right
f 139 140 141 142
f 144 143 146 145
f 143 139 142 146
f 140 144 145 141
f 142 141 145 146
f 143 144 140 139
o rfid_wave_1_1
f 147 148 149 150
f 152 151 154 153
f 151 147 150 154
f 148 152 153 149
f 150 149 153 154
f 151 152 148 147
o rfid_wave_1_2
f 155 156 157 158
f 160 159 162 161
f 159 155 158 162
f 156 160 161 157
f 158 157 161 162
f 159 160 156 155
o rfid_wave_1_3
f 163 164 165 166
f 168 167 170 169
f 167 163 166 170
f 164 168 169 165
f 166 165 169 170
f 167 168 164 163
o rfid_wave_1_4
f 171 172 173 174
f 176 175 178 177
f 175 171 174 178
f 172 176 177 173
f 174 173 177 178
f 175 176 172 171
o rfid_wave_1_5
f 179 180 181 182
f 184 183 186 185
f 183 179 182 186
f 180 184 185 181
f 182 181 185 186
f 183 184 180 179
o rfid_wave_1_6
f 187 188 189 190
f 192 191 194 193
f 191 187 190 194
f 188 192 193 189
f 190 189 193 194
f 191 192 188 187
o rfid_wave_1_7
f 195 196 197 198
f 200 199 202 201
f 199 195 198 202
f 196 200 201 197
f 198 197 201 202
f 199 200 196 195
o rfid_wave_1_8
f 203 204 205 206
f 208 207 210 209
f 207 203 206 210
f 204 208 209 205
f 206 205 209 210
f 207 208 204 203
o rfid_wave_1_9
f 211 212 213 214
f 216 215 218 217
f 215 211 214 218
f 212 216 217 213
f 214 213 217 218
f 215 216 212 211
o rfid_wave_1_10
f 219 220 221 222
f 224 223 226 225
f 223 219 222 226
f 220 224 225 221
f 222 221 225 226
f 223 224 220 219
o rfid_wave_1_11
f 227 228 229 230
f 232 231 234 233
f 231 227 230 234
f 228 232 233 229
f 230 229 233 234
f 231 232 228 227
o rfid_wave_1_12
f 235 236 237 238
f 240 239 242 241
f 239 235 238 242
f 236 240 241 237
f 238 237 241 242
f 239 240 236 235
o rfid_wave_1_13
f 243 244 245 246
f 248 247 250 249
f 247 243 246 250
f 244 248 249 245
f 246 245 249 250
f 247 248 244 243
o rfid_wave_1_14
f 251 252 253 254
f 256 255 258 257
f 255 251 254 258
f 252 256 257 253
f 254 253 257 258
f 255 256 252 251
o rfid_wave_1_15
f 259 260 261 262
f 264 263 266 265
f 263 259 262 266
f 260 264 265 261
f 262 261 265 266
f 263 264 260 259
o rfid_wave_1_16
f 267 268 269 270
f 272 271 274 273
f 271 267 270 274
f 268 272 273 269
f 270 269 273 274
f 271 272 268 267
o rfid_wave_1_17
f 275 276 277 278
f 280 279 282 281
f 279 275 278 282
f 276 280 281 277
f 278 277 281 282
f 279 280 276 275
o rfid_wave_1_18
f 283 284 285 286
f 288 287 290 289
f 287 283 286 290
f 284 288 289 285
f 286 285 289 290
f 287 288 284 283
o rfid_wave_2_1
f 291 292 293 294
f 296 295 298 297
f 295 291 294 298
f 292 296 297 293
f 294 293 297 298
f 295 296 292 291
o rfid_wave_2_2
f 299 300 301 302
f 304 303 306 305
f 303 299 302 306
f 300 304 305 301
f 302 301 305 306
f 303 304 300 299
o rfid_wave_2_3
f 307 308 309 310
f 312 311 314 313
f 311 307 310 314
f 308 312 313 309
f 310 309 313 314
f 311 312 308 307
o rfid_wave_2_4
f 315 316 317 318
f 320 319 322 321
f 319 315 318 322
f 316 320 321 317
f 318 317 321 322
f 319 320 316 315
o rfid_wave_2_5
f 323 324 325 326
f 328 327 330 329
f 327 323 326 330
f 324 328 329 325
f 326 325 329 330
f 327 328 324 323
o rfid_wave_2_6
f 331 332 333 334
f 336 335 338 337
f 335 331 334 338
f 332 336 337 333
f 334 333 337 338
f 335 336 332 331
o rfid_wave_2_7
f 339 340 341 342
f 344 343 346 345
f 343 339 342 346
f 340 344 345 341
f 342 341 345 346
f 343 344 340 339
o rfid_wave_2_8
f 347 348 349 350
f 352 351 354 353
f 351 347 350 354
f 348 352 353 349
f 350 349 353 354
f 351 352 348 347
o rfid_wave_2_9
f 355 356 357 358
f 360 359 362 361
f 359 355 358 362
f 356 360 361 357
f 358 357 361 362
f 359 360 356 355
o rfid_wave_2_10
f 363 364 365 366
f 368 367 370 369
f 367 363 366 370
f 364 368 369 365
f 366 365 369 370
f 367 368 364 363
o rfid_wave_2_11
f 371 372 373 374
f 376 375 378 377
f 375 371 374 378
f 372 376 377 373
f 374 373 377 378
f 375 376 372 371
o rfid_wave_2_12
f 379 380 381 382
f 384 383 386 385
f 383 379 382 386
f 380 384 385 381
f 382 381 385 386
f 383 384 380 379
o rfid_wave_2_13
f 387 388 389 390
f 392 391 394 393
f 391 387 390 394
f 388 392 393 389
f 390 389 393 394
f 391 392 388 387
o rfid_wave_2_14
f 395 396 397 398
f 400 399 402 401
f 399 395 398 402
f 396 400 401 397
f 398 397 401 402
f 399 400 396 395
o rfid_wave_2_15
f 403 404 405 406
f 408 407 410 409
f 407 403 406 410
f 404 408 409 405
f 406 405 409 410
f 407 408 404 403
o rfid_wave_2_16
f 411 412 413 414
f 416 415 418 417
f 415 411 414 418
f 412 416 417 413
f 414 413 417 418
f 415 416 412 411
o rfid_wave_2_17
f 419 420 421 422
f 424 423 426 425
f 423 419 422 426
f 420 424 425 421
f 422 421 425 426
f 423 424 420 419
o rfid_wave_2_18
f 427 428 429 430
f 432 431 434 433
f 431 427 430 434
f 428 432 433 429
f 430 429 433 434
f 431 432 428 427
o rfid_wave_3_1
f 435 436 437 438
f 440 439 442 441
f 439 435 438 442
f 436 440 441 437
f 438 437 441 442
f 439 440 436 435
o rfid_wave_3_2
f 443 444 445 446
f 448 447 450 449
f 447 443 446 450
f 444 448 449 445
f 446 445 449 450
f 447 448 444 443
o rfid_wave_3_3
f 451 452 453 454
f 456 455 458 457
f 455 451 454 458
f 452 456 457 453
f 454 453 457 458
f 455 456 452 451
o rfid_wave_3_4
f 459 460 461 462
f 464 463 466 465
f 463 459 462 466
f 460 464 465 461
f 462 461 465 466
f 463 464 460 459
o rfid_wave_3_5
f 467 468 469 470
f 472 471 474 473
f 471 467 470 474
f 468 472 473 469
f 470 469 473 474
f 471 472 468 467
o rfid_wave_3_6
f 475 476 477 478
f 480 479 482 481
f 479 475 478 482
f 476 480 481 477
f 478 477 481 482
f 479 480 476 475
o rfid_wave_3_7
f 483 484 485 486
f 488 487 490 489
f 487 483 486 490
f 484 488 489 485
f 486 485 489 490
f 487 488 484 483
o rfid_wave_3_8
f 491 492 493 494
f 496 495 498 497
f 495 491 494 498
f 492 496 497 493
f 494 493 497 498
f 495 496 492 491
o rfid_wave_3_9
f 499 500 501 502
f 504 503 506 505
f 503 499 502 506
f 500 504 505 501
f 502 501 505 506
f 503 504 500 499
o rfid_wave_3_10
f 507 508 509 510
f 512 511 514 513
f 511 507 510 514
f 508 512 513 509
f 510 509 513 514
f 511 512 508 507
o rfid_wave_3_11
f 515 516 517 518
f 520 519 522 521
f 519 515 518 522
f 516 520 521 517
f 518 517 521 522
f 519 520 516 515
o rfid_wave_3_12
f 523 524 525 526
f 528 527 530 529
f 527 523 526 530
f 524 528 529 525
f 526 525 529 530
f 527 528 524 523
o rfid_wave_3_13
f 531 532 533 534
f 536 535 538 537
f 535 531 534 538
f 532 536 537 533
f 534 533 537 538
f 535 536 532 531
o rfid_wave_3_14
f 539 540 541 542
f 544 543 546 545
f 543 539 542 546
f 540 544 545 541
f 542 541 545 546
f 543 544 540 539
o rfid_wave_3_15
f 547 548 549 550
f 552 551 554 553
f 551 547 550 554
f 548 552 553 549
f 550 549 553 554
f 551 552 548 547
o rfid_wave_3_16
f 555 556 557 558
f 560 559 562 561
f 559 555 558 562
f 556 560 561 557
f 558 557 561 562
f 559 560 556 555
o rfid_wave_3_17
f 563 564 565 566
f 568 567 570 569
f 567 563 566 570
f 564 568 569 565
f 566 565 569 570
f 567 568 564 563
o rfid_wave_3_18
f 571 572 573 574
f 576 575 578 577
f 575 571 574 578
f 572 576 577 573
f 574 573 577 578
f 575 576 572 571
o card_top
f 579 580 581 582
f 584 583 586 585
f 583 579 582 586
f 580 584 585 581
f 582 581 585 586
f 583 584 580 579
o card_right
f 587 588 589 590
f 592 591 594 593
f 591 587 590 594
f 588 592 593 589
f 590 589 593 594
f 591 592 588 587
o card_bottom
f 595 596 597 598
f 600 599 602 601
f 599 595 598 602
f 596 600 601 597
f 598 597 601 602
f 599 600 596 595
o card_left
f 603 604 605 606
f 608 607 610 609
f 607 603 606 610
f 604 608 609 605
f 606 605 609 610
f 607 608 604 603
o hand_index
f 611 612 613 614
f 616 615 618 617
f 615 611 614 618
f 612 616 617 613
f 614 613 617 618
f 615 616 612 611
o hand_thumb
f 619 620 621 622
f 624 623 626 625
f 623 619 622 626
f 620 624 625 621
f 622 621 625 626
f 623 624 620 619
o hand_wrist
f 627 628 629 630
f 632 631 634 633
f 631 627 630 634
f 628 632 633 629
f 630 629 633 634
f 631 632 628 627
o label_S_top_-31_27
f 635 636 637 638
f 640 639 642 641
f 639 635 638 642
f 636 640 641 637
f 638 637 641 642
f 639 640 636 635
o label_S_ul_-31_27
f 643 644 645 646
f 648 647 650 649
f 647 643 646 650
f 644 648 649 645
f 646 645 649 650
f 647 648 644 643
o label_S_mid_-31_27
f 651 652 653 654
f 656 655 658 657
f 655 651 654 658
f 652 656 657 653
f 654 653 657 658
f 655 656 652 651
o label_S_lr_-31_27
f 659 660 661 662
f 664 663 666 665
f 663 659 662 666
f 660 664 665 661
f 662 661 665 666
f 663 664 660 659
o label_S_bottom_-31_27
f 667 668 669 670
f 672 671 674 673
f 671 667 670 674
f 668 672 673 669
f 670 669 673 674
f 671 672 668 667
o label_C_top_-23.65_27
f 675 676 677 678
f 680 679 682 681
f 679 675 678 682
f 676 680 681 677
f 678 677 681 682
f 679 680 676 675
o label_C_left_-23.65_27
f 683 684 685 686
f 688 687 690 689
f 687 683 686 690
f 684 688 689 685
f 686 685 689 690
f 687 688 684 683
o label_C_bottom_-23.65_27
f 691 692 693 694
f 696 695 698 697
f 695 691 694 698
f 692 696 697 693
f 694 693 697 698
f 695 696 692 691
o label_A_top_-16.299999999999997_27
f 699 700 701 702
f 704 703 706 705
f 703 699 702 706
f 700 704 705 701
f 702 701 705 706
f 703 704 700 699
o label_A_ul_-16.299999999999997_27
f 707 708 709 710
f 712 711 714 713
f 711 707 710 714
f 708 712 713 709
f 710 709 713 714
f 711 712 708 707
o label_A_ur_-16.299999999999997_27
f 715 716 717 718
f 720 719 722 721
f 719 715 718 722
f 716 720 721 717
f 718 717 721 722
f 719 720 716 715
o label_A_mid_-16.299999999999997_27
f 723 724 725 726
f 728 727 730 729
f 727 723 726 730
f 724 728 729 725
f 726 725 729 730
f 727 728 724 723
o label_A_ll_-16.299999999999997_27
f 731 732 733 734
f 736 735 738 737
f 735 731 734 738
f 732 736 737 733
f 734 733 737 738
f 735 736 732 731
o label_A_lr_-16.299999999999997_27
f 739 740 741 742
f 744 743 746 745
f 743 739 742 746
f 740 744 745 741
f 742 741 745 746
f 743 744 740 739
o label_N_left_-8.949999999999996_27
f 747 748 749 750
f 752 751 754 753
f 751 747 750 754
f 748 752 753 749
f 750 749 753 754
f 751 752 748 747
o label_N_right_-8.949999999999996_27
f 755 756 757 758
f 760 759 762 761
f 759 755 758 762
f 756 760 761 757
f 758 757 761 762
f 759 760 756 755
o label_N_diag2_-8.949999999999996_27
f 763 764 765 766
f 768 767 770 769
f 767 763 766 770
f 764 768 769 765
f 766 765 769 770
f 767 768 764 763
o label_H_left_2.600000000000005_27
f 771 772 773 774
f 776 775 778 777
f 775 771 774 778
f 772 776 777 773
f 774 773 777 778
f 775 776 772 771
o label_H_right_2.600000000000005_27
f 779 780 781 782
f 784 783 786 785
f 783 779 782 786
f 780 784 785 781
f 782 781 785 786
f 783 784 780 779
o label_H_mid_2.600000000000005_27
f 787 788 789 790
f 792 791 794 793
f 791 787 790 794
f 788 792 793 789
f 790 789 793 794
f 791 792 788 787
o label_E_top_9.950000000000006_27
f 795 796 797 798
f 800 799 802 801
f 799 795 798 802
f 796 800 801 797
f 798 797 801 802
f 799 800 796 795
o label_E_mid_9.950000000000006_27
f 803 804 805 806
f 808 807 810 809
f 807 803 806 810
f 804 808 809 805
f 806 805 809 810
f 807 808 804 803
o label_E_bottom_9.950000000000006_27
f 811 812 813 814
f 816 815 818 817
f 815 811 814 818
f 812 816 817 813
f 814 813 817 818
f 815 816 812 811
o label_E_left_9.950000000000006_27
f 819 820 821 822
f 824 823 826 825
f 823 819 822 826
f 820 824 825 821
f 822 821 825 826
f 823 824 820 819
o label_R_top_17.300000000000008_27
f 827 828 829 830
f 832 831 834 833
f 831 827 830 834
f 828 832 833 829
f 830 829 833 834
f 831 832 828 827
o label_R_ul_17.300000000000008_27
f 835 836 837 838
f 840 839 842 841
f 839 835 838 842
f 836 840 841 837
f 838 837 841 842
f 839 840 836 835
o label_R_ur_17.300000000000008_27
f 843 844 845 846
f 848 847 850 849
f 847 843 846 850
f 844 848 849 845
f 846 845 849 850
f 847 848 844 843
o label_R_mid_17.300000000000008_27
f 851 852 853 854
f 856 855 858 857
f 855 851 854 858
f 852 856 857 853
f 854 853 857 858
f 855 856 852 851
o label_R_ll_17.300000000000008_27
f 859 860 861 862
f 864 863 866 865
f 863 859 862 866
f 860 864 865 861
f 862 861 865 866
f 863 864 860 859
o label_R_diagR_17.300000000000008_27
f 867 868 869 870
f 872 871 874 873
f 871 867 870 874
f 868 872 873 869
f 870 869 873 874
f 871 872 868 867
o label_E_top_24.65000000000001_27
f 875 876 877 878
f 880 879 882 881
f 879 875 878 882
f 876 880 881 877
f 878 877 881 882
f 879 880 876 875
o label_E_mid_24.65000000000001_27
f 883 884 885 886
f 888 887 890 889
f 887 883 886 890
f 884 888 889 885
f 886 885 889 890
f 887 888 884 883
o label_E_bottom_24.65000000000001_27
f 891 892 893 894
f 896 895 898 897
f 895 891 894 898
f 892 896 897 893
f 894 893 897 898
f 895 896 892 891
o label_E_left_24.65000000000001_27
f 899 900 901 902
f 904 903 906 905
f 903 899 902 906
f 900 904 905 901
f 902 901 905 906
f 903 904 900 899
o front_screw_top_left_head
usemtl metal_dark
f 907 909 910 908
f 963 909 907
f 964 908 910
f 909 911 912 910
f 963 911 909
f 964 910 912
f 911 913 914 912
f 963 913 911
f 964 912 914
f 913 915 916 914
f 963 915 913
f 964 914 916
f 915 917 918 916
f 963 917 915
f 964 916 918
f 917 919 920 918
f 963 919 917
f 964 918 920
f 919 921 922 920
f 963 921 919
f 964 920 922
f 921 923 924 922
f 963 923 921
f 964 922 924
f 923 925 926 924
f 963 925 923
f 964 924 926
f 925 927 928 926
f 963 927 925
f 964 926 928
f 927 929 930 928
f 963 929 927
f 964 928 930
f 929 931 932 930
f 963 931 929
f 964 930 932
f 931 933 934 932
f 963 933 931
f 964 932 934
f 933 935 936 934
f 963 935 933
f 964 934 936
f 935 937 938 936
f 963 937 935
f 964 936 938
f 937 939 940 938
f 963 939 937
f 964 938 940
f 939 941 942 940
f 963 941 939
f 964 940 942
f 941 943 944 942
f 963 943 941
f 964 942 944
f 943 945 946 944
f 963 945 943
f 964 944 946
f 945 947 948 946
f 963 947 945
f 964 946 948
f 947 949 950 948
f 963 949 947
f 964 948 950
f 949 951 952 950
f 963 951 949
f 964 950 952
f 951 953 954 952
f 963 953 951
f 964 952 954
f 953 955 956 954
f 963 955 953
f 964 954 956
f 955 957 958 956
f 963 957 955
f 964 956 958
f 957 959 960 958
f 963 959 957
f 964 958 960
f 959 961 962 960
f 963 961 959
f 964 960 962
f 961 907 908 962
f 963 907 961
f 964 962 908
o front_screw_top_left_slot_a
usemtl metal_light
f 965 966 967 968
f 970 969 972 971
f 969 965 968 972
f 966 970 971 967
f 968 967 971 972
f 969 970 966 965
o front_screw_top_left_slot_b
f 973 974 975 976
f 978 977 980 979
f 977 973 976 980
f 974 978 979 975
f 976 975 979 980
f 977 978 974 973
o front_screw_top_right_head
usemtl metal_dark
f 981 983 984 982
f 1037 983 981
f 1038 982 984
f 983 985 986 984
f 1037 985 983
f 1038 984 986
f 985 987 988 986
f 1037 987 985
f 1038 986 988
f 987 989 990 988
f 1037 989 987
f 1038 988 990
f 989 991 992 990
f 1037 991 989
f 1038 990 992
f 991 993 994 992
f 1037 993 991
f 1038 992 994
f 993 995 996 994
f 1037 995 993
f 1038 994 996
f 995 997 998 996
f 1037 997 995
f 1038 996 998
f 997 999 1000 998
f 1037 999 997
f 1038 998 1000
f 999 1001 1002 1000
f 1037 1001 999
f 1038 1000 1002
f 1001 1003 1004 1002
f 1037 1003 1001
f 1038 1002 1004
f 1003 1005 1006 1004
f 1037 1005 1003
f 1038 1004 1006
f 1005 1007 1008 1006
f 1037 1007 1005
f 1038 1006 1008
f 1007 1009 1010 1008
f 1037 1009 1007
f 1038 1008 1010
f 1009 1011 1012 1010
f 1037 1011 1009
f 1038 1010 1012
f 1011 1013 1014 1012
f 1037 1013 1011
f 1038 1012 1014
f 1013 1015 1016 1014
f 1037 1015 1013
f 1038 1014 1016
f 1015 1017 1018 1016
f 1037 1017 1015
f 1038 1016 1018
f 1017 1019 1020 1018
f 1037 1019 1017
f 1038 1018 1020
f 1019 1021 1022 1020
f 1037 1021 1019
f 1038 1020 1022
f 1021 1023 1024 1022
f 1037 1023 1021
f 1038 1022 1024
f 1023 1025 1026 1024
f 1037 1025 1023
f 1038 1024 1026
f 1025 1027 1028 1026
f 1037 1027 1025
f 1038 1026 1028
f 1027 1029 1030 1028
f 1037 1029 1027
f 1038 1028 1030
f 1029 1031 1032 1030
f 1037 1031 1029
f 1038 1030 1032
f 1031 1033 1034 1032
f 1037 1033 1031
f 1038 1032 1034
f 1033 1035 1036 1034
f 1037 1035 1033
f 1038 1034 1036
f 1035 981 982 1036
f 1037 981 1035
f 1038 1036 982
o front_screw_top_right_slot_a
usemtl metal_light
f 1039 1040 1041 1042
f 1044 1043 1046 1045
f 1043 1039 1042 1046
f 1040 1044 1045 1041
f 1042 1041 1045 1046
f 1043 1044 1040 1039
o front_screw_top_right_slot_b
f 1047 1048 1049 1050
f 1052 1051 1054 1053
f 1051 1047 1050 1054
f 1048 1052 1053 1049
f 1050 1049 1053 1054
f 1051 1052 1048 1047
o front_screw_bottom_left_head
usemtl metal_dark
f 1055 1057 1058 1056
f 1111 1057 1055
f 1112 1056 1058
f 1057 1059 1060 1058
f 1111 1059 1057
f 1112 1058 1060
f 1059 1061 1062 1060
f 1111 1061 1059
f 1112 1060 1062
f 1061 1063 1064 1062
f 1111 1063 1061
f 1112 1062 1064
f 1063 1065 1066 1064
f 1111 1065 1063
f 1112 1064 1066
f 1065 1067 1068 1066
f 1111 1067 1065
f 1112 1066 1068
f 1067 1069 1070 1068
f 1111 1069 1067
f 1112 1068 1070
f 1069 1071 1072 1070
f 1111 1071 1069
f 1112 1070 1072
f 1071 1073 1074 1072
f 1111 1073 1071
f 1112 1072 1074
f 1073 1075 1076 1074
f 1111 1075 1073
f 1112 1074 1076
f 1075 1077 1078 1076
f 1111 1077 1075
f 1112 1076 1078
f 1077 1079 1080 1078
f 1111 1079 1077
f 1112 1078 1080
f 1079 1081 1082 1080
f 1111 1081 1079
f 1112 1080 1082
f 1081 1083 1084 1082
f 1111 1083 1081
f 1112 1082 1084
f 1083 1085 1086 1084
f 1111 1085 1083
f 1112 1084 1086
f 1085 1087 1088 1086
f 1111 1087 1085
f 1112 1086 1088
f 1087 1089 1090 1088
f 1111 1089 1087
f 1112 1088 1090
f 1089 1091 1092 1090
f 1111 1091 1089
f 1112 1090 1092
f 1091 1093 1094 1092
f 1111 1093 1091
f 1112 1092 1094
f 1093 1095 1096 1094
f 1111 1095 1093
f 1112 1094 1096
f 1095 1097 1098 1096
f 1111 1097 1095
f 1112 1096 1098
f 1097 1099 1100 1098
f 1111 1099 1097
f 1112 1098 1100
f 1099 1101 1102 1100
f 1111 1101 1099
f 1112 1100 1102
f 1101 1103 1104 1102
f 1111 1103 1101
f 1112 1102 1104
f 1103 1105 1106 1104
f 1111 1105 1103
f 1112 1104 1106
f 1105 1107 1108 1106
f 1111 1107 1105
f 1112 1106 1108
f 1107 1109 1110 1108
f 1111 1109 1107
f 1112 1108 1110
f 1109 1055 1056 1110
f 1111 1055 1109
f 1112 1110 1056
o front_screw_bottom_left_slot_a
usemtl metal_light
f 1113 1114 1115 1116
f 1118 1117 1120 1119
f 1117 1113 1116 1120
f 1114 1118 1119 1115
f 1116 1115 1119 1120
f 1117 1118 1114 1113
o front_screw_bottom_left_slot_b
f 1121 1122 1123 1124
f 1126 1125 1128 1127
f 1125 1121 1124 1128
f 1122 1126 1127 1123
f 1124 1123 1127 1128
f 1125 1126 1122 1121
o front_screw_bottom_right_head
usemtl metal_dark
f 1129 1131 1132 1130
f 1185 1131 1129
f 1186 1130 1132
f 1131 1133 1134 1132
f 1185 1133 1131
f 1186 1132 1134
f 1133 1135 1136 1134
f 1185 1135 1133
f 1186 1134 1136
f 1135 1137 1138 1136
f 1185 1137 1135
f 1186 1136 1138
f 1137 1139 1140 1138
f 1185 1139 1137
f 1186 1138 1140
f 1139 1141 1142 1140
f 1185 1141 1139
f 1186 1140 1142
f 1141 1143 1144 1142
f 1185 1143 1141
f 1186 1142 1144
f 1143 1145 1146 1144
f 1185 1145 1143
f 1186 1144 1146
f 1145 1147 1148 1146
f 1185 1147 1145
f 1186 1146 1148
f 1147 1149 1150 1148
f 1185 1149 1147
f 1186 1148 1150
f 1149 1151 1152 1150
f 1185 1151 1149
f 1186 1150 1152
f 1151 1153 1154 1152
f 1185 1153 1151
f 1186 1152 1154
f 1153 1155 1156 1154
f 1185 1155 1153
f 1186 1154 1156
f 1155 1157 1158 1156
f 1185 1157 1155
f 1186 1156 1158
f 1157 1159 1160 1158
f 1185 1159 1157
f 1186 1158 1160
f 1159 1161 1162 1160
f 1185 1161 1159
f 1186 1160 1162
f 1161 1163 1164 1162
f 1185 1163 1161
f 1186 1162 1164
f 1163 1165 1166 1164
f 1185 1165 1163
f 1186 1164 1166
f 1165 1167 1168 1166
f 1185 1167 1165
f 1186 1166 1168
f 1167 1169 1170 1168
f 1185 1169 1167
f 1186 1168 1170
f 1169 1171 1172 1170
f 1185 1171 1169
f 1186 1170 1172
f 1171 1173 1174 1172
f 1185 1173 1171
f 1186 1172 1174
f 1173 1175 1176 1174
f 1185 1175 1173
f 1186 1174 1176
f 1175 1177 1178 1176
f 1185 1177 1175
f 1186 1176 1178
f 1177 1179 1180 1178
f 1185 1179 1177
f 1186 1178 1180
f 1179 1181 1182 1180
f 1185 1181 1179
f 1186 1180 1182
f 1181 1183 1184 1182
f 1185 1183 1181
f 1186 1182 1184
f 1183 1129 1130 1184
f 1185 1129 1183
f 1186 1184 1130
o front_screw_bottom_right_slot_a
usemtl metal_light
f 1187 1188 1189 1190
f 1192 1191 1194 1193
f 1191 1187 1190 1194
f 1188 1192 1193 1189
f 1190 1189 1193 1194
f 1191 1192 1188 1187
o front_screw_bottom_right_slot_b
f 1195 1196 1197 1198
f 1200 1199 1202 1201
f 1199 1195 1198 1202
f 1196 1200 1201 1197
f 1198 1197 1201 1202
f 1199 1200 1196 1195
o buzzer_outer
usemtl black_abs
f 1203 1205 1206 1204
f 1275 1205 1203
f 1276 1204 1206
f 1205 1207 1208 1206
f 1275 1207 1205
f 1276 1206 1208
f 1207 1209 1210 1208
f 1275 1209 1207
f 1276 1208 1210
f 1209 1211 1212 1210
f 1275 1211 1209
f 1276 1210 1212
f 1211 1213 1214 1212
f 1275 1213 1211
f 1276 1212 1214
f 1213 1215 1216 1214
f 1275 1215 1213
f 1276 1214 1216
f 1215 1217 1218 1216
f 1275 1217 1215
f 1276 1216 1218
f 1217 1219 1220 1218
f 1275 1219 1217
f 1276 1218 1220
f 1219 1221 1222 1220
f 1275 1221 1219
f 1276 1220 1222
f 1221 1223 1224 1222
f 1275 1223 1221
f 1276 1222 1224
f 1223 1225 1226 1224
f 1275 1225 1223
f 1276 1224 1226
f 1225 1227 1228 1226
f 1275 1227 1225
f 1276 1226 1228
f 1227 1229 1230 1228
f 1275 1229 1227
f 1276 1228 1230
f 1229 1231 1232 1230
f 1275 1231 1229
f 1276 1230 1232
f 1231 1233 1234 1232
f 1275 1233 1231
f 1276 1232 1234
f 1233 1235 1236 1234
f 1275 1235 1233
f 1276 1234 1236
f 1235 1237 1238 1236
f 1275 1237 1235
f 1276 1236 1238
f 1237 1239 1240 1238
f 1275 1239 1237
f 1276 1238 1240
f 1239 1241 1242 1240
f 1275 1241 1239
f 1276 1240 1242
f 1241 1243 1244 1242
f 1275 1243 1241
f 1276 1242 1244
f 1243 1245 1246 1244
f 1275 1245 1243
f 1276 1244 1246
f 1245 1247 1248 1246
f 1275 1247 1245
f 1276 1246 1248
f 1247 1249 1250 1248
f 1275 1249 1247
f 1276 1248 1250
f 1249 1251 1252 1250
f 1275 1251 1249
f 1276 1250 1252
f 1251 1253 1254 1252
f 1275 1253 1251
f 1276 1252 1254
f 1253 1255 1256 1254
f 1275 1255 1253
f 1276 1254 1256
f 1255 1257 1258 1256
f 1275 1257 1255
f 1276 1256 1258
f 1257 1259 1260 1258
f 1275 1259 1257
f 1276 1258 1260
f 1259 1261 1262 1260
f 1275 1261 1259
f 1276 1260 1262
f 1261 1263 1264 1262
f 1275 1263 1261
f 1276 1262 1264
f 1263 1265 1266 1264
f 1275 1265 1263
f 1276 1264 1266
f 1265 1267 1268 1266
f 1275 1267 1265
f 1276 1266 1268
f 1267 1269 1270 1268
f 1275 1269 1267
f 1276 1268 1270
f 1269 1271 1272 1270
f 1275 1271 1269
f 1276 1270 1272
f 1271 1273 1274 1272
f 1275 1273 1271
f 1276 1272 1274
f 1273 1203 1204 1274
f 1275 1203 1273
f 1276 1274 1204
o buzzer_inner_plate
usemtl metal_dark
f 1277 1279 1280 1278
f 1349 1279 1277
f 1350 1278 1280
f 1279 1281 1282 1280
f 1349 1281 1279
f 1350 1280 1282
f 1281 1283 1284 1282
f 1349 1283 1281
f 1350 1282 1284
f 1283 1285 1286 1284
f 1349 1285 1283
f 1350 1284 1286
f 1285 1287 1288 1286
f 1349 1287 1285
f 1350 1286 1288
f 1287 1289 1290 1288
f 1349 1289 1287
f 1350 1288 1290
f 1289 1291 1292 1290
f 1349 1291 1289
f 1350 1290 1292
f 1291 1293 1294 1292
f 1349 1293 1291
f 1350 1292 1294
f 1293 1295 1296 1294
f 1349 1295 1293
f 1350 1294 1296
f 1295 1297 1298 1296
f 1349 1297 1295
f 1350 1296 1298
f 1297 1299 1300 1298
f 1349 1299 1297
f 1350 1298 1300
f 1299 1301 1302 1300
f 1349 1301 1299
f 1350 1300 1302
f 1301 1303 1304 1302
f 1349 1303 1301
f 1350 1302 1304
f 1303 1305 1306 1304
f 1349 1305 1303
f 1350 1304 1306
f 1305 1307 1308 1306
f 1349 1307 1305
f 1350 1306 1308
f 1307 1309 1310 1308
f 1349 1309 1307
f 1350 1308 1310
f 1309 1311 1312 1310
f 1349 1311 1309
f 1350 1310 1312
f 1311 1313 1314 1312
f 1349 1313 1311
f 1350 1312 1314
f 1313 1315 1316 1314
f 1349 1315 1313
f 1350 1314 1316
f 1315 1317 1318 1316
f 1349 1317 1315
f 1350 1316 1318
f 1317 1319 1320 1318
f 1349 1319 1317
f 1350 1318 1320
f 1319 1321 1322 1320
f 1349 1321 1319
f 1350 1320 1322
f 1321 1323 1324 1322
f 1349 1323 1321
f 1350 1322 1324
f 1323 1325 1326 1324
f 1349 1325 1323
f 1350 1324 1326
f 1325 1327 1328 1326
f 1349 1327 1325
f 1350 1326 1328
f 1327 1329 1330 1328
f 1349 1329 1327
f 1350 1328 1330
f 1329 1331 1332 1330
f 1349 1331 1329
f 1350 1330 1332
f 1331 1333 1334 1332
f 1349 1333 1331
f 1350 1332 1334
f 1333 1335 1336 1334
f 1349 1335 1333
f 1350 1334 1336
f 1335 1337 1338 1336
f 1349 1337 1335
f 1350 1336 1338
f 1337 1339 1340 1338
f 1349 1339 1337
f 1350 1338 1340
f 1339 1341 1342 1340
f 1349 1341 1339
f 1350 1340 1342
f 1341 1343 1344 1342
f 1349 1343 1341
f 1350 1342 1344
f 1343 1345 1346 1344
f 1349 1345 1343
f 1350 1344 1346
f 1345 1347 1348 1346
f 1349 1347 1345
f 1350 1346 1348
f 1347 1277 1278 1348
f 1349 1277 1347
f 1350 1348 1278
o buzzer_hole_1
usemtl black_hole
f 1351 1353 1354 1352
f 1379 1353 1351
f 1380 1352 1354
f 1353 1355 1356 1354
f 1379 1355 1353
f 1380 1354 1356
f 1355 1357 1358 1356
f 1379 1357 1355
f 1380 1356 1358
f 1357 1359 1360 1358
f 1379 1359 1357
f 1380 1358 1360
f 1359 1361 1362 1360
f 1379 1361 1359
f 1380 1360 1362
f 1361 1363 1364 1362
f 1379 1363 1361
f 1380 1362 1364
f 1363 1365 1366 1364
f 1379 1365 1363
f 1380 1364 1366
f 1365 1367 1368 1366
f 1379 1367 1365
f 1380 1366 1368
f 1367 1369 1370 1368
f 1379 1369 1367
f 1380 1368 1370
f 1369 1371 1372 1370
f 1379 1371 1369
f 1380 1370 1372
f 1371 1373 1374 1372
f 1379 1373 1371
f 1380 1372 1374
f 1373 1375 1376 1374
f 1379 1375 1373
f 1380 1374 1376
f 1375 1377 1378 1376
f 1379 1377 1375
f 1380 1376 1378
f 1377 1351 1352 1378
f 1379 1351 1377
f 1380 1378 1352
o buzzer_hole_2
f 1381 1383 1384 1382
f 1409 1383 1381
f 1410 1382 1384
f 1383 1385 1386 1384
f 1409 1385 1383
f 1410 1384 1386
f 1385 1387 1388 1386
f 1409 1387 1385
f 1410 1386 1388
f 1387 1389 1390 1388
f 1409 1389 1387
f 1410 1388 1390
f 1389 1391 1392 1390
f 1409 1391 1389
f 1410 1390 1392
f 1391 1393 1394 1392
f 1409 1393 1391
f 1410 1392 1394
f 1393 1395 1396 1394
f 1409 1395 1393
f 1410 1394 1396
f 1395 1397 1398 1396
f 1409 1397 1395
f 1410 1396 1398
f 1397 1399 1400 1398
f 1409 1399 1397
f 1410 1398 1400
f 1399 1401 1402 1400
f 1409 1401 1399
f 1410 1400 1402
f 1401 1403 1404 1402
f 1409 1403 1401
f 1410 1402 1404
f 1403 1405 1406 1404
f 1409 1405 1403
f 1410 1404 1406
f 1405 1407 1408 1406
f 1409 1407 1405
f 1410 1406 1408
f 1407 1381 1382 1408
f 1409 1381 1407
f 1410 1408 1382
o buzzer_hole_3
f 1411 1413 1414 1412
f 1439 1413 1411
f 1440 1412 1414
f 1413 1415 1416 1414
f 1439 1415 1413
f 1440 1414 1416
f 1415 1417 1418 1416
f 1439 1417 1415
f 1440 1416 1418
f 1417 1419 1420 1418
f 1439 1419 1417
f 1440 1418 1420
f 1419 1421 1422 1420
f 1439 1421 1419
f 1440 1420 1422
f 1421 1423 1424 1422
f 1439 1423 1421
f 1440 1422 1424
f 1423 1425 1426 1424
f 1439 1425 1423
f 1440 1424 1426
f 1425 1427 1428 1426
f 1439 1427 1425
f 1440 1426 1428
f 1427 1429 1430 1428
f 1439 1429 1427
f 1440 1428 1430
f 1429 1431 1432 1430
f 1439 1431 1429
f 1440 1430 1432
f 1431 1433 1434 1432
f 1439 1433 1431
f 1440 1432 1434
f 1433 1435 1436 1434
f 1439 1435 1433
f 1440 1434 1436
f 1435 1437 1438 1436
f 1439 1437 1435
f 1440 1436 1438
f 1437 1411 1412 1438
f 1439 1411 1437
f 1440 1438 1412
o buzzer_hole_4
f 1441 1443 1444 1442
f 1469 1443 1441
f 1470 1442 1444
f 1443 1445 1446 1444
f 1469 1445 1443
f 1470 1444 1446
f 1445 1447 1448 1446
f 1469 1447 1445
f 1470 1446 1448
f 1447 1449 1450 1448
f 1469 1449 1447
f 1470 1448 1450
f 1449 1451 1452 1450
f 1469 1451 1449
f 1470 1450 1452
f 1451 1453 1454 1452
f 1469 1453 1451
f 1470 1452 1454
f 1453 1455 1456 1454
f 1469 1455 1453
f 1470 1454 1456
f 1455 1457 1458 1456
f 1469 1457 1455
f 1470 1456 1458
f 1457 1459 1460 1458
f 1469 1459 1457
f 1470 1458 1460
f 1459 1461 1462 1460
f 1469 1461 1459
f 1470 1460 1462
f 1461 1463 1464 1462
f 1469 1463 1461
f 1470 1462 1464
f 1463 1465 1466 1464
f 1469 1465 1463
f 1470 1464 1466
f 1465 1467 1468 1466
f 1469 1467 1465
f 1470 1466 1468
f 1467 1441 1442 1468
f 1469 1441 1467
f 1470 1468 1442
o buzzer_hole_5
f 1471 1473 1474 1472
f 1499 1473 1471
f 1500 1472 1474
f 1473 1475 1476 1474
f 1499 1475 1473
f 1500 1474 1476
f 1475 1477 1478 1476
f 1499 1477 1475
f 1500 1476 1478
f 1477 1479 1480 1478
f 1499 1479 1477
f 1500 1478 1480
f 1479 1481 1482 1480
f 1499 1481 1479
f 1500 1480 1482
f 1481 1483 1484 1482
f 1499 1483 1481
f 1500 1482 1484
f 1483 1485 1486 1484
f 1499 1485 1483
f 1500 1484 1486
f 1485 1487 1488 1486
f 1499 1487 1485
f 1500 1486 1488
f 1487 1489 1490 1488
f 1499 1489 1487
f 1500 1488 1490
f 1489 1491 1492 1490
f 1499 1491 1489
f 1500 1490 1492
f 1491 1493 1494 1492
f 1499 1493 1491
f 1500 1492 1494
f 1493 1495 1496 1494
f 1499 1495 1493
f 1500 1494 1496
f 1495 1497 1498 1496
f 1499 1497 1495
f 1500 1496 1498
f 1497 1471 1472 1498
f 1499 1471 1497
f 1500 1498 1472
o buzzer_hole_6
f 1501 1503 1504 1502
f 1529 1503 1501
f 1530 1502 1504
f 1503 1505 1506 1504
f 1529 1505 1503
f 1530 1504 1506
f 1505 1507 1508 1506
f 1529 1507 1505
f 1530 1506 1508
f 1507 1509 1510 1508
f 1529 1509 1507
f 1530 1508 1510
f 1509 1511 1512 1510
f 1529 1511 1509
f 1530 1510 1512
f 1511 1513 1514 1512
f 1529 1513 1511
f 1530 1512 1514
f 1513 1515 1516 1514
f 1529 1515 1513
f 1530 1514 1516
f 1515 1517 1518 1516
f 1529 1517 1515
f 1530 1516 1518
f 1517 1519 1520 1518
f 1529 1519 1517
f 1530 1518 1520
f 1519 1521 1522 1520
f 1529 1521 1519
f 1530 1520 1522
f 1521 1523 1524 1522
f 1529 1523 1521
f 1530 1522 1524
f 1523 1525 1526 1524
f 1529 1525 1523
f 1530 1524 1526
f 1525 1527 1528 1526
f 1529 1527 1525
f 1530 1526 1528
f 1527 1501 1502 1528
f 1529 1501 1527
f 1530 1528 1502
o buzzer_hole_7
f 1531 1533 1534 1532
f 1559 1533 1531
f 1560 1532 1534
f 1533 1535 1536 1534
f 1559 1535 1533
f 1560 1534 1536
f 1535 1537 1538 1536
f 1559 1537 1535
f 1560 1536 1538
f 1537 1539 1540 1538
f 1559 1539 1537
f 1560 1538 1540
f 1539 1541 1542 1540
f 1559 1541 1539
f 1560 1540 1542
f 1541 1543 1544 1542
f 1559 1543 1541
f 1560 1542 1544
f 1543 1545 1546 1544
f 1559 1545 1543
f 1560 1544 1546
f 1545 1547 1548 1546
f 1559 1547 1545
f 1560 1546 1548
f 1547 1549 1550 1548
f 1559 1549 1547
f 1560 1548 1550
f 1549 1551 1552 1550
f 1559 1551 1549
f 1560 1550 1552
f 1551 1553 1554 1552
f 1559 1553 1551
f 1560 1552 1554
f 1553 1555 1556 1554
f 1559 1555 1553
f 1560 1554 1556
f 1555 1557 1558 1556
f 1559 1557 1555
f 1560 1556 1558
f 1557 1531 1532 1558
f 1559 1531 1557
f 1560 1558 1532
o buzzer_hole_8
f 1561 1563 1564 1562
f 1589 1563 1561
f 1590 1562 1564
f 1563 1565 1566 1564
f 1589 1565 1563
f 1590 1564 1566
f 1565 1567 1568 1566
f 1589 1567 1565
f 1590 1566 1568
f 1567 1569 1570 1568
f 1589 1569 1567
f 1590 1568 1570
f 1569 1571 1572 1570
f 1589 1571 1569
f 1590 1570 1572
f 1571 1573 1574 1572
f 1589 1573 1571
f 1590 1572 1574
f 1573 1575 1576 1574
f 1589 1575 1573
f 1590 1574 1576
f 1575 1577 1578 1576
f 1589 1577 1575
f 1590 1576 1578
f 1577 1579 1580 1578
f 1589 1579 1577
f 1590 1578 1580
f 1579 1581 1582 1580
f 1589 1581 1579
f 1590 1580 1582
f 1581 1583 1584 1582
f 1589 1583 1581
f 1590 1582 1584
f 1583 1585 1586 1584
f 1589 1585 1583
f 1590 1584 1586
f 1585 1587 1588 1586
f 1589 1587 1585
f 1590 1586 1588
f 1587 1561 1562 1588
f 1589 1561 1587
f 1590 1588 1562
o buzzer_hole_9
f 1591 1593 1594 1592
f 1619 1593 1591
f 1620 1592 1594
f 1593 1595 1596 1594
f 1619 1595 1593
f 1620 1594 1596
f 1595 1597 1598 1596
f 1619 1597 1595
f 1620 1596 1598
f 1597 1599 1600 1598
f 1619 1599 1597
f 1620 1598 1600
f 1599 1601 1602 1600
f 1619 1601 1599
f 1620 1600 1602
f 1601 1603 1604 1602
f 1619 1603 1601
f 1620 1602 1604
f 1603 1605 1606 1604
f 1619 1605 1603
f 1620 1604 1606
f 1605 1607 1608 1606
f 1619 1607 1605
f 1620 1606 1608
f 1607 1609 1610 1608
f 1619 1609 1607
f 1620 1608 1610
f 1609 1611 1612 1610
f 1619 1611 1609
f 1620 1610 1612
f 1611 1613 1614 1612
f 1619 1613 1611
f 1620 1612 1614
f 1613 1615 1616 1614
f 1619 1615 1613
f 1620 1614 1616
f 1615 1617 1618 1616
f 1619 1617 1615
f 1620 1616 1618
f 1617 1591 1592 1618
f 1619 1591 1617
f 1620 1618 1592
o dc_barrel_outer
usemtl black_abs
f 1621 1623 1624 1622
f 1693 1623 1621
f 1694 1622 1624
f 1623 1625 1626 1624
f 1693 1625 1623
f 1694 1624 1626
f 1625 1627 1628 1626
f 1693 1627 1625
f 1694 1626 1628
f 1627 1629 1630 1628
f 1693 1629 1627
f 1694 1628 1630
f 1629 1631 1632 1630
f 1693 1631 1629
f 1694 1630 1632
f 1631 1633 1634 1632
f 1693 1633 1631
f 1694 1632 1634
f 1633 1635 1636 1634
f 1693 1635 1633
f 1694 1634 1636
f 1635 1637 1638 1636
f 1693 1637 1635
f 1694 1636 1638
f 1637 1639 1640 1638
f 1693 1639 1637
f 1694 1638 1640
f 1639 1641 1642 1640
f 1693 1641 1639
f 1694 1640 1642
f 1641 1643 1644 1642
f 1693 1643 1641
f 1694 1642 1644
f 1643 1645 1646 1644
f 1693 1645 1643
f 1694 1644 1646
f 1645 1647 1648 1646
f 1693 1647 1645
f 1694 1646 1648
f 1647 1649 1650 1648
f 1693 1649 1647
f 1694 1648 1650
f 1649 1651 1652 1650
f 1693 1651 1649
f 1694 1650 1652
f 1651 1653 1654 1652
f 1693 1653 1651
f 1694 1652 1654
f 1653 1655 1656 1654
f 1693 1655 1653
f 1694 1654 1656
f 1655 1657 1658 1656
f 1693 1657 1655
f 1694 1656 1658
f 1657 1659 1660 1658
f 1693 1659 1657
f 1694 1658 1660
f 1659 1661 1662 1660
f 1693 1661 1659
f 1694 1660 1662
f 1661 1663 1664 1662
f 1693 1663 1661
f 1694 1662 1664
f 1663 1665 1666 1664
f 1693 1665 1663
f 1694 1664 1666
f 1665 1667 1668 1666
f 1693 1667 1665
f 1694 1666 1668
f 1667 1669 1670 1668
f 1693 1669 1667
f 1694 1668 1670
f 1669 1671 1672 1670
f 1693 1671 1669
f 1694 1670 1672
f 1671 1673 1674 1672
f 1693 1673 1671
f 1694 1672 1674
f 1673 1675 1676 1674
f 1693 1675 1673
f 1694 1674 1676
f 1675 1677 1678 1676
f 1693 1677 1675
f 1694 1676 1678
f 1677 1679 1680 1678
f 1693 1679 1677
f 1694 1678 1680
f 1679 1681 1682 1680
f 1693 1681 1679
f 1694 1680 1682
f 1681 1683 1684 1682
f 1693 1683 1681
f 1694 1682 1684
f 1683 1685 1686 1684
f 1693 1685 1683
f 1694 1684 1686
f 1685 1687 1688 1686
f 1693 1687 1685
f 1694 1686 1688
f 1687 1689 1690 1688
f 1693 1689 1687
f 1694 1688 1690
f 1689 1691 1692 1690
f 1693 1691 1689
f 1694 1690 1692
f 1691 1621 1622 1692
f 1693 1621 1691
f 1694 1692 1622
o dc_barrel_metal_ring
usemtl metal_light
f 1695 1697 1698 1696
f 1767 1697 1695
f 1768 1696 1698
f 1697 1699 1700 1698
f 1767 1699 1697
f 1768 1698 1700
f 1699 1701 1702 1700
f 1767 1701 1699
f 1768 1700 1702
f 1701 1703 1704 1702
f 1767 1703 1701
f 1768 1702 1704
f 1703 1705 1706 1704
f 1767 1705 1703
f 1768 1704 1706
f 1705 1707 1708 1706
f 1767 1707 1705
f 1768 1706 1708
f 1707 1709 1710 1708
f 1767 1709 1707
f 1768 1708 1710
f 1709 1711 1712 1710
f 1767 1711 1709
f 1768 1710 1712
f 1711 1713 1714 1712
f 1767 1713 1711
f 1768 1712 1714
f 1713 1715 1716 1714
f 1767 1715 1713
f 1768 1714 1716
f 1715 1717 1718 1716
f 1767 1717 1715
f 1768 1716 1718
f 1717 1719 1720 1718
f 1767 1719 1717
f 1768 1718 1720
f 1719 1721 1722 1720
f 1767 1721 1719
f 1768 1720 1722
f 1721 1723 1724 1722
f 1767 1723 1721
f 1768 1722 1724
f 1723 1725 1726 1724
f 1767 1725 1723
f 1768 1724 1726
f 1725 1727 1728 1726
f 1767 1727 1725
f 1768 1726 1728
f 1727 1729 1730 1728
f 1767 1729 1727
f 1768 1728 1730
f 1729 1731 1732 1730
f 1767 1731 1729
f 1768 1730 1732
f 1731 1733 1734 1732
f 1767 1733 1731
f 1768 1732 1734
f 1733 1735 1736 1734
f 1767 1735 1733
f 1768 1734 1736
f 1735 1737 1738 1736
f 1767 1737 1735
f 1768 1736 1738
f 1737 1739 1740 1738
f 1767 1739 1737
f 1768 1738 1740
f 1739 1741 1742 1740
f 1767 1741 1739
f 1768 1740 1742
f 1741 1743 1744 1742
f 1767 1743 1741
f 1768 1742 1744
f 1743 1745 1746 1744
f 1767 1745 1743
f 1768 1744 1746
f 1745 1747 1748 1746
f 1767 1747 1745
f 1768 1746 1748
f 1747 1749 1750 1748
f 1767 1749 1747
f 1768 1748 1750
f 1749 1751 1752 1750
f 1767 1751 1749
f 1768 1750 1752
f 1751 1753 1754 1752
f 1767 1753 1751
f 1768 1752 1754
f 1753 1755 1756 1754
f 1767 1755 1753
f 1768 1754 1756
f 1755 1757 1758 1756
f 1767 1757 1755
f 1768 1756 1758
f 1757 1759 1760 1758
f 1767 1759 1757
f 1768 1758 1760
f 1759 1761 1762 1760
f 1767 1761 1759
f 1768 1760 1762
f 1761 1763 1764 1762
f 1767 1763 1761
f 1768 1762 1764
f 1763 1765 1766 1764
f 1767 1765 1763
f 1768 1764 1766
f 1765 1695 1696 1766
f 1767 1695 1765
f 1768 1766 1696
o dc_barrel_center
usemtl black_hole
f 1769 1771 1772 1770
f 1829 1771 1769
f 1830 1770 1772
f 1771 1773 1774 1772
f 1829 1773 1771
f 1830 1772 1774
f 1773 1775 1776 1774
f 1829 1775 1773
f 1830 1774 1776
f 1775 1777 1778 1776
f 1829 1777 1775
f 1830 1776 1778
f 1777 1779 1780 1778
f 1829 1779 1777
f 1830 1778 1780
f 1779 1781 1782 1780
f 1829 1781 1779
f 1830 1780 1782
f 1781 1783 1784 1782
f 1829 1783 1781
f 1830 1782 1784
f 1783 1785 1786 1784
f 1829 1785 1783
f 1830 1784 1786
f 1785 1787 1788 1786
f 1829 1787 1785
f 1830 1786 1788
f 1787 1789 1790 1788
f 1829 1789 1787
f 1830 1788 1790
f 1789 1791 1792 1790
f 1829 1791 1789
f 1830 1790 1792
f 1791 1793 1794 1792
f 1829 1793 1791
f 1830 1792 1794
f 1793 1795 1796 1794
f 1829 1795 1793
f 1830 1794 1796
f 1795 1797 1798 1796
f 1829 1797 1795
f 1830 1796 1798
f 1797 1799 1800 1798
f 1829 1799 1797
f 1830 1798 1800
f 1799 1801 1802 1800
f 1829 1801 1799
f 1830 1800 1802
f 1801 1803 1804 1802
f 1829 1803 1801
f 1830 1802 1804
f 1803 1805 1806 1804
f 1829 1805 1803
f 1830 1804 1806
f 1805 1807 1808 1806
f 1829 1807 1805
f 1830 1806 1808
f 1807 1809 1810 1808
f 1829 1809 1807
f 1830 1808 1810
f 1809 1811 1812 1810
f 1829 1811 1809
f 1830 1810 1812
f 1811 1813 1814 1812
f 1829 1813 1811
f 1830 1812 1814
f 1813 1815 1816 1814
f 1829 1815 1813
f 1830 1814 1816
f 1815 1817 1818 1816
f 1829 1817 1815
f 1830 1816 1818
f 1817 1819 1820 1818
f 1829 1819 1817
f 1830 1818 1820
f 1819 1821 1822 1820
f 1829 1821 1819
f 1830 1820 1822
f 1821 1823 1824 1822
f 1829 1823 1821
f 1830 1822 1824
f 1823 1825 1826 1824
f 1829 1825 1823
f 1830 1824 1826
f 1825 1827 1828 1826
f 1829 1827 1825
f 1830 1826 1828
f 1827 1769 1770 1828
f 1829 1769 1827
f 1830 1828 1770
o side_case_seam_top
usemtl case_shadow
f 1831 1832 1833 1834
f 1836 1835 1838 1837
f 1835 1831 1834 1838
f 1832 1836 1837 1833
f 1834 1833 1837 1838
f 1835 1836 1832 1831
o side_case_seam_bottom
f 1839 1840 1841 1842
f 1844 1843 1846 1845
f 1843 1839 1842 1846
f 1840 1844 1845 1841
f 1842 1841 1845 1846
f 1843 1844 1840 1839
